<svg width="150" height="150" viewBox="0 0 150 150" fill="none" xmlns="http://www.w3.org/2000/svg">
<path d="M40.2192 80.0577V56.1792C40.2027 56.0659 40.2129 55.9504 40.249 55.8417C40.2851 55.7331 40.3461 55.6344 40.427 55.5534C40.508 55.4725 40.6067 55.4116 40.7154 55.3755C40.8241 55.3394 40.9397 55.3292 41.053 55.3456H50.601C52.7009 55.3456 54.3195 55.8904 55.4567 56.98C56.5939 58.0696 57.1643 59.6659 57.1679 61.7688V63.4032C57.2043 64.3952 56.9174 65.3722 56.3504 66.1871C55.767 66.9548 54.9506 67.5129 54.0234 67.7779C54.663 67.8458 55.2775 68.0643 55.8164 68.4154C56.3474 68.7582 56.7781 69.2357 57.0644 69.7991C57.3921 70.5007 57.549 71.2699 57.5221 72.0437V74.4299C57.5221 76.5256 56.9535 78.1237 55.8164 79.2242C54.6719 80.3138 53.0915 80.8586 50.9988 80.8586H41.053C40.9429 80.8729 40.8311 80.8623 40.7256 80.8276C40.6202 80.7929 40.5239 80.735 40.4439 80.6581C40.3639 80.5812 40.3021 80.4874 40.2632 80.3835C40.2243 80.2795 40.2093 80.1682 40.2192 80.0577ZM45.7071 65.7023H49.7671C50.4358 65.7544 51.1005 65.5607 51.6364 65.1575C51.8547 64.9209 52.0205 64.6408 52.1228 64.3357C52.2252 64.0305 52.2619 63.7072 52.2304 63.3869V61.8451C52.2684 61.5257 52.2396 61.202 52.1457 60.8944C52.0519 60.5868 51.8952 60.302 51.6855 60.0582C51.1513 59.6662 50.4926 59.4822 49.8325 59.5406H45.7071C45.6479 59.5325 45.5877 59.5381 45.5311 59.5572C45.4745 59.5762 45.4231 59.6081 45.3808 59.6503C45.3386 59.6925 45.3067 59.7439 45.2877 59.8005C45.2687 59.8571 45.263 59.9173 45.2711 59.9764V65.2664C45.263 65.3256 45.2687 65.3858 45.2877 65.4424C45.3067 65.4989 45.3386 65.5504 45.3808 65.5926C45.4231 65.6348 45.4745 65.6666 45.5311 65.6857C45.5877 65.7047 45.6479 65.7104 45.7071 65.7023ZM45.7071 76.68H50.165C50.8339 76.7347 51.4995 76.5407 52.0342 76.1352C52.2534 75.9 52.4201 75.6211 52.5234 75.3169C52.6268 75.0126 52.6643 74.6899 52.6337 74.37V72.0655C52.6622 71.7524 52.6235 71.4369 52.5201 71.1399C52.4167 70.843 52.2511 70.5716 52.0342 70.3439C51.4681 69.939 50.7774 69.7461 50.0832 69.7991H45.7234C45.6643 69.791 45.604 69.7967 45.5474 69.8157C45.4908 69.8348 45.4394 69.8666 45.3972 69.9088C45.355 69.9511 45.3231 70.0025 45.304 70.059C45.285 70.1156 45.2793 70.1758 45.2875 70.235V76.2278C45.277 76.2866 45.2804 76.3471 45.2973 76.4044C45.3142 76.4617 45.3442 76.5143 45.3848 76.5581C45.4255 76.602 45.4757 76.6358 45.5316 76.6569C45.5876 76.678 45.6476 76.6859 45.7071 76.68Z" fill="#262626"/>
<path d="M69.8168 80.8967H68.8631C66.7668 80.8967 65.1482 80.3392 64.0074 79.2241C62.8684 78.1345 62.2961 76.5002 62.2961 74.4136V67.0751C62.2961 64.9777 62.8411 63.376 64.0074 62.2591C65.1736 61.1423 66.7649 60.592 68.8631 60.592H78.0514C78.6345 60.592 78.9288 60.8699 78.9288 61.4256V80.0577C78.9288 80.6025 78.6345 80.8967 78.0514 80.8967H74.7107C74.5971 80.9122 74.4814 80.9011 74.3728 80.8643C74.2642 80.8275 74.1656 80.7661 74.0848 80.6847C74.004 80.6034 73.9431 80.5045 73.907 80.3957C73.871 80.2869 73.8606 80.1712 73.8769 80.0577V78.7502H73.7134C73.5651 79.1187 73.3438 79.4534 73.0629 79.7343C72.7819 80.0151 72.4471 80.2363 72.0784 80.3846C71.3677 80.7085 70.5978 80.8828 69.8168 80.8967ZM73.8769 73.4983V65.4407C73.8769 65.152 73.7134 65.0049 73.3973 65.0049H69.6588C69.0126 64.9427 68.368 65.1385 67.8658 65.5497C67.4621 66.0622 67.2674 66.7084 67.3208 67.3584V74.1575C67.2732 74.8019 67.4675 75.441 67.8658 75.9499C68.1124 76.1569 68.3984 76.3119 68.7066 76.4056C69.0147 76.4992 69.3386 76.5295 69.6588 76.4947H71.1302C72.2201 76.4947 72.945 76.2005 73.3101 75.6176C73.6968 74.9794 73.8934 74.2442 73.8769 73.4983Z" fill="#262626"/>
<path d="M88.3132 80.8967H84.9343C84.8207 80.9122 84.7051 80.9011 84.5965 80.8643C84.4879 80.8275 84.3893 80.7661 84.3085 80.6847C84.2276 80.6034 84.1668 80.5045 84.1307 80.3957C84.0946 80.2869 84.0843 80.1712 84.1005 80.0577V61.4474C84.0841 61.3341 84.0943 61.2185 84.1304 61.1099C84.1665 61.0013 84.2274 60.9026 84.3084 60.8216C84.3893 60.7407 84.4881 60.6797 84.5968 60.6437C84.7054 60.6076 84.821 60.5974 84.9343 60.6138H88.3132C88.4267 60.5976 88.5424 60.6079 88.6513 60.644C88.7601 60.6801 88.8591 60.7409 88.9404 60.8217C89.0218 60.9025 89.0833 61.001 89.1201 61.1096C89.1569 61.2182 89.1679 61.3338 89.1524 61.4474V62.7985H89.3105C89.4519 62.4221 89.6704 62.0795 89.9519 61.7924C90.2334 61.5053 90.5718 61.2802 90.9454 61.1314C91.6612 60.7989 92.4396 60.6225 93.2289 60.6138H94.6621C95.2071 60.6138 95.4578 60.8917 95.4578 61.4474V64.1714C95.4578 64.7815 95.1908 65.043 94.6621 64.9668H91.9373C90.8473 64.9668 90.1225 65.2664 89.7574 65.8602C89.3718 66.5298 89.1829 67.2946 89.2124 68.0667V80.0522C89.2326 80.1726 89.2228 80.2961 89.1839 80.4117C89.1449 80.5274 89.0779 80.6316 88.989 80.7151C88.9 80.7987 88.7917 80.859 88.6738 80.8906C88.556 80.9223 88.4321 80.9244 88.3132 80.8967Z" fill="#262626"/>
<path d="M103 80.8967H99.6214C99.5073 80.9131 99.3911 80.9027 99.2817 80.8664C99.1724 80.83 99.0731 80.7687 98.9916 80.6872C98.9102 80.6058 98.8488 80.5065 98.8124 80.3972C98.7761 80.2879 98.7657 80.1717 98.7821 80.0577V61.4474C98.7666 61.3338 98.7777 61.2182 98.8145 61.1096C98.8513 61.001 98.9128 60.9025 98.9941 60.8217C99.0755 60.7409 99.1744 60.6801 99.2833 60.644C99.3921 60.6079 99.5079 60.5976 99.6214 60.6138H103C103.114 60.5974 103.229 60.6076 103.338 60.6437C103.446 60.6797 103.545 60.7407 103.626 60.8216C103.707 60.9026 103.768 61.0013 103.804 61.1099C103.84 61.2185 103.85 61.3341 103.834 61.4474V62.7985H103.998C104.139 62.422 104.357 62.0791 104.639 61.792C104.92 61.5049 105.259 61.2799 105.632 61.1314C106.35 60.7994 107.13 60.623 107.921 60.6138H109.355C109.9 60.6138 110.15 60.8917 110.15 61.4474V64.1714C110.15 64.7815 109.883 65.043 109.355 64.9668H106.63C105.54 64.9668 104.815 65.2664 104.45 65.8602C104.062 66.5288 103.873 67.2943 103.905 68.0667V80.0522C103.925 80.1732 103.916 80.2973 103.876 80.4135C103.837 80.5297 103.77 80.6343 103.68 80.718C103.59 80.8017 103.481 80.8618 103.363 80.893C103.244 80.9242 103.119 80.9255 103 80.8967Z" fill="#262626"/>
<path d="M123.164 80.8967H119.627C117.531 80.8967 115.912 80.3392 114.772 79.2241C113.633 78.1345 113.06 76.5002 113.06 74.4136V67.0751C113.06 64.9777 113.605 63.376 114.772 62.2591C115.938 61.1423 117.529 60.592 119.627 60.592H123.164C125.235 60.592 126.843 61.1368 127.998 62.2591C129.154 63.3814 129.731 64.9831 129.731 67.0751V74.4136C129.731 76.5056 129.154 78.1091 127.998 79.2241C126.843 80.341 125.235 80.8967 123.164 80.8967ZM120.379 76.5383H122.412C123.063 76.5972 123.711 76.402 124.222 75.9935C124.627 75.497 124.823 74.8616 124.766 74.2229V67.2549C124.829 66.609 124.633 65.9646 124.222 65.4625C123.705 65.0687 123.059 64.8839 122.412 64.945H120.379C119.739 64.8795 119.098 65.0651 118.592 65.4625C118.183 65.966 117.988 66.6093 118.047 67.2549V74.2556C117.993 74.894 118.189 75.5283 118.592 76.0262C118.84 76.2285 119.126 76.3798 119.432 76.4714C119.739 76.563 120.061 76.5932 120.379 76.5601V76.5383Z" fill="#262626"/>
<path d="M142.178 80.8967H134.609C134.064 80.8967 133.813 80.6188 133.813 80.0577V77.5135C133.791 77.296 133.847 77.0778 133.971 76.8979C134.06 76.8262 134.162 76.7733 134.271 76.7424C134.381 76.7115 134.496 76.7032 134.609 76.7181H141.252C141.743 76.7421 142.233 76.6468 142.68 76.4402C142.851 76.3592 142.995 76.2288 143.092 76.0658C143.189 75.9027 143.235 75.7144 143.225 75.525V75.3289C143.222 75.14 143.18 74.9537 143.101 74.782C143.022 74.6104 142.909 74.457 142.767 74.3319C142.413 74.0065 142.019 73.7264 141.595 73.4983L137.655 71.3191C136.555 70.7796 135.565 70.0407 134.734 69.1399C134.025 68.2585 133.665 67.1478 133.72 66.0182C133.72 64.1332 134.211 62.7604 135.192 61.8996C136.173 61.0388 137.71 60.6084 139.802 60.6084H146.451C146.996 60.6084 147.247 60.8862 147.247 61.4419V64.0297C147.268 64.2479 147.21 64.4663 147.083 64.6454C146.996 64.7166 146.894 64.7692 146.786 64.8001C146.677 64.831 146.563 64.8396 146.451 64.8251H140.909C140.418 64.8002 139.927 64.8878 139.475 65.0812C139.321 65.1348 139.187 65.2336 139.089 65.3648C138.992 65.496 138.937 65.6535 138.93 65.8167V66.0182C138.933 66.2186 138.984 66.4153 139.078 66.5918C139.173 66.7682 139.31 66.9191 139.475 67.0316C139.846 67.3187 140.237 67.5773 140.647 67.8052L144.664 70.1914C145.463 70.5821 146.207 71.0767 146.876 71.6624C147.387 72.1254 147.787 72.6969 148.048 73.3349C148.305 74.0488 148.427 74.8045 148.408 75.5631C148.447 76.2861 148.333 77.0093 148.072 77.6846C147.81 78.36 147.408 78.9721 146.893 79.4802C145.906 80.4227 144.331 80.8967 142.178 80.8967Z" fill="#262626"/>
<path d="M43.3092 93.7703C42.8581 93.7849 42.4111 93.6817 42.0122 93.4707C41.6661 93.282 41.3721 93.0106 41.1566 92.6807C40.9413 92.3452 40.7812 91.9773 40.6824 91.5911C40.5846 91.1843 40.5352 90.7674 40.5353 90.349C40.5349 89.9356 40.5862 89.5239 40.6879 89.1232C40.786 88.7359 40.9481 88.3676 41.1675 88.0336C41.3887 87.7023 41.6834 87.4264 42.0285 87.2273C42.4218 87.017 42.8634 86.9136 43.3092 86.9277C43.6814 86.9143 44.0523 86.9773 44.3992 87.1129C44.671 87.2241 44.9175 87.389 45.124 87.5978C45.2996 87.7798 45.4466 87.9873 45.5599 88.2134L44.688 88.6438C44.5898 88.4912 44.4766 88.3489 44.3501 88.2188C44.2292 88.0965 44.0845 88.0001 43.925 87.9355C43.7341 87.8376 43.5237 87.7836 43.3092 87.7775C43.0128 87.7679 42.7204 87.8476 42.4699 88.0064C42.2424 88.1637 42.0556 88.3728 41.925 88.6165C41.7859 88.8743 41.6866 89.1517 41.6307 89.4392C41.5708 89.7296 41.5398 90.0252 41.538 90.3218C41.5397 90.6315 41.5744 90.9401 41.6416 91.2425C41.7033 91.5323 41.8119 91.8102 41.9631 92.0651C42.0984 92.2981 42.2847 92.4974 42.5081 92.648C42.7485 92.7963 43.0267 92.872 43.3092 92.866C43.6058 92.879 43.8986 92.7949 44.143 92.6263C44.3624 92.46 44.5475 92.2528 44.688 92.0161L45.5709 92.343C45.4526 92.6138 45.2865 92.8611 45.0804 93.073C44.8732 93.3033 44.6209 93.4887 44.3392 93.6178C44.0095 93.737 43.6593 93.7888 43.3092 93.7703Z" fill="#262626"/>
<path d="M48.7589 93.7703C48.4589 93.7845 48.1596 93.73 47.8838 93.6111C47.608 93.4921 47.3631 93.3118 47.1676 93.0838C46.7555 92.553 46.5485 91.8915 46.5845 91.2206C46.5796 90.7585 46.6763 90.301 46.8678 89.8804C47.0258 89.5184 47.2875 89.2113 47.6199 88.9978C47.9652 88.7804 48.3673 88.6704 48.7753 88.6818C49.184 88.6716 49.5871 88.7794 49.936 88.9924C50.2673 89.2032 50.5275 89.5088 50.6827 89.8695C50.8663 90.2996 50.9555 90.764 50.9443 91.2315C50.9566 91.6996 50.8654 92.1647 50.6772 92.5935C50.5196 92.9541 50.2601 93.2608 49.9306 93.4761C49.5767 93.6854 49.1697 93.7876 48.7589 93.7703ZM48.7589 92.8713C48.9323 92.878 49.1046 92.8417 49.2606 92.7657C49.4165 92.6896 49.5512 92.5762 49.6527 92.4355C49.8853 92.0725 49.9978 91.6456 49.9742 91.2151C49.9993 90.7846 49.8867 90.3572 49.6527 89.9948C49.5473 89.858 49.4119 89.7473 49.257 89.671C49.102 89.5948 48.9316 89.5552 48.7589 89.5552C48.5862 89.5552 48.4158 89.5948 48.2609 89.671C48.1059 89.7473 47.9705 89.858 47.8651 89.9948C47.6311 90.3592 47.5185 90.7883 47.5436 91.2206C47.5193 91.6494 47.6319 92.0748 47.8651 92.4355C47.9648 92.5792 48.0987 92.6958 48.2547 92.7748C48.4108 92.8537 48.5841 92.8925 48.7589 92.8877V92.8713Z" fill="#262626"/>
<path d="M52.1487 93.6722V88.7963H53.0969V89.2866C53.2392 89.0925 53.4261 88.9355 53.6419 88.829C53.8718 88.7276 54.121 88.6774 54.3722 88.6819C54.6159 88.6655 54.86 88.7063 55.0852 88.8008C55.3104 88.8954 55.5103 89.0412 55.6692 89.2267C55.9924 89.6873 56.1464 90.2454 56.1052 90.8066V93.6886H55.1515V90.812C55.176 90.4838 55.0875 90.157 54.9008 89.8859C54.8118 89.779 54.6987 89.6946 54.5708 89.6397C54.443 89.5848 54.304 89.5609 54.1651 89.5699C54.0174 89.5595 53.8692 89.5814 53.7309 89.6341C53.5925 89.6868 53.4673 89.769 53.364 89.875C53.1681 90.1403 53.0734 90.4668 53.0969 90.7957V93.6722H52.1487Z" fill="#262626"/>
<path d="M59.0971 93.7704C58.7429 93.7705 58.393 93.6924 58.0726 93.5416C57.7649 93.4005 57.4944 93.1897 57.2823 92.9259L57.9363 92.3811C58.0899 92.5555 58.2747 92.6996 58.4813 92.8061C58.6714 92.8996 58.8798 92.9498 59.0917 92.9532C59.3139 92.9663 59.5353 92.9152 59.7293 92.8061C59.7994 92.7612 59.8568 92.6991 59.8959 92.6256C59.9351 92.5521 59.9546 92.4698 59.9527 92.3866C59.9544 92.2743 59.9179 92.1649 59.8492 92.0761C59.7556 91.9617 59.6385 91.8688 59.5058 91.8037C59.2923 91.6953 59.072 91.6006 58.8464 91.5204C58.4204 91.3833 58.0258 91.1629 57.6856 90.872C57.5712 90.7559 57.4814 90.6178 57.4215 90.4662C57.3616 90.3146 57.3328 90.1525 57.3368 89.9895C57.3333 89.8063 57.3741 89.6249 57.4557 89.4608C57.5373 89.2968 57.6573 89.1548 57.8055 89.047C58.1562 88.7926 58.5825 88.664 59.0154 88.682C59.3419 88.6785 59.6653 88.7454 59.9636 88.8781C60.2469 89.0017 60.4985 89.188 60.6993 89.4229L60.0563 89.9677C59.924 89.8224 59.7622 89.7069 59.5818 89.6289C59.4014 89.551 59.2064 89.5123 59.0099 89.5155C58.8196 89.5076 58.6309 89.5529 58.4649 89.6463C58.4021 89.6825 58.3502 89.735 58.3147 89.7983C58.2792 89.8616 58.2614 89.9333 58.2633 90.0058C58.2665 90.0842 58.289 90.1606 58.329 90.2281C58.3689 90.2956 58.425 90.3521 58.4922 90.3926C58.7595 90.5593 59.0471 90.6911 59.3478 90.7849C59.6548 90.8854 59.9478 91.0246 60.2198 91.1989C60.4242 91.3251 60.593 91.5014 60.7102 91.711C60.816 91.9163 60.8685 92.1449 60.8628 92.3757C60.8712 92.5726 60.8326 92.7687 60.7501 92.9477C60.6677 93.1268 60.5438 93.2836 60.3887 93.4054C60.0123 93.6705 59.5567 93.7993 59.0971 93.7704Z" fill="#262626"/>
<path d="M63.7621 93.7703C63.5163 93.7842 63.2705 93.7424 63.0431 93.6481C62.8156 93.5538 62.6125 93.4093 62.4487 93.2255C62.1238 92.7698 61.9695 92.2144 62.0127 91.6565V88.7963H62.961V91.6456C62.9357 91.9756 63.0241 92.3044 63.2117 92.5772C63.3024 92.6832 63.4167 92.7665 63.5454 92.8204C63.6741 92.8743 63.8136 92.8974 63.9528 92.8877C64.0998 92.8988 64.2473 92.8771 64.3849 92.8244C64.5225 92.7716 64.6467 92.6891 64.7485 92.5826C64.9457 92.318 65.0406 91.991 65.0156 91.6619V88.7963H65.9638V93.6722H65.0156V93.2255C64.8723 93.4131 64.6851 93.5628 64.4706 93.6613C64.2446 93.7468 64.0033 93.7839 63.7621 93.7703Z" fill="#262626"/>
<path d="M67.5769 93.6722V87.2327L68.5252 86.7914V93.6722H67.5769Z" fill="#262626"/>
<path d="M71.4844 93.7702C71.337 93.7806 71.1892 93.7581 71.0516 93.7044C70.914 93.6507 70.7901 93.5671 70.6887 93.4597C70.4866 93.2076 70.3874 92.8884 70.4108 92.5662V89.6298H69.6478V88.7962H70.4108V87.2327L71.3645 86.775V88.7853H72.5307V89.6298H71.3917V92.3538C71.3782 92.5106 71.4165 92.6675 71.5007 92.8005C71.5441 92.8493 71.5981 92.8875 71.6586 92.912C71.7191 92.9366 71.7844 92.9469 71.8495 92.9421C72.1153 92.9302 72.3731 92.8474 72.5961 92.7024L72.4871 93.585C72.342 93.6597 72.1882 93.7164 72.0294 93.7539C71.8488 93.7787 71.6661 93.7842 71.4844 93.7702Z" fill="#262626"/>
<path d="M75.5826 93.7702C75.2825 93.7845 74.9832 93.73 74.7074 93.6111C74.4317 93.4921 74.1867 93.3118 73.9912 93.0838C73.5769 92.5542 73.3696 91.8919 73.4081 91.2206C73.3976 90.7549 73.4868 90.2924 73.6697 89.864C73.8325 89.4963 74.1017 89.1857 74.4426 88.9721C74.7835 88.7585 75.1805 88.6517 75.5826 88.6655C75.9913 88.6552 76.3944 88.763 76.7434 88.976C77.0767 89.186 77.3388 89.4917 77.4954 89.8531C77.6791 90.2832 77.7683 90.7477 77.757 91.2151C77.7693 91.6833 77.6782 92.1483 77.49 92.5771C77.3323 92.9377 77.0729 93.2445 76.7434 93.4597C76.3944 93.6727 75.9913 93.7805 75.5826 93.7702ZM75.5826 92.8713C75.7559 92.878 75.9283 92.8417 76.0842 92.7657C76.2402 92.6896 76.3749 92.5762 76.4763 92.4355C76.7089 92.0725 76.8214 91.6456 76.7978 91.2151C76.8229 90.7846 76.7103 90.3572 76.4763 89.9948C76.3709 89.858 76.2356 89.7473 76.0806 89.671C75.9256 89.5948 75.7553 89.5552 75.5826 89.5552C75.4099 89.5552 75.2395 89.5948 75.0845 89.671C74.9295 89.7473 74.7942 89.858 74.6888 89.9948C74.4522 90.3581 74.3394 90.788 74.3673 91.2206C74.3403 91.6497 74.4531 92.0759 74.6888 92.4355C74.7884 92.5792 74.9223 92.6958 75.0784 92.7748C75.2344 92.8537 75.4077 92.8925 75.5826 92.8877V92.8713Z" fill="#262626"/>
<path d="M78.9723 93.6723V88.7964H79.9205V89.412C80.0135 89.1909 80.1688 89.0017 80.3674 88.8672C80.5675 88.7447 80.7977 88.6806 81.0323 88.682C81.3227 88.675 81.605 88.7781 81.8225 88.9707L81.6863 89.8533C81.583 89.7728 81.4669 89.7102 81.3429 89.6681C81.2194 89.6302 81.0907 89.6118 80.9614 89.6136C80.7671 89.6096 80.5765 89.6667 80.4165 89.777C80.2557 89.8971 80.1312 90.0592 80.0568 90.2455C79.9645 90.47 79.92 90.7112 79.926 90.9538V93.6778L78.9723 93.6723Z" fill="#262626"/>
<path d="M83.2013 88.0009C83.1252 88.0028 83.0495 87.9888 82.9791 87.9597C82.9087 87.9306 82.8451 87.8871 82.7926 87.832C82.6838 87.7227 82.6227 87.5748 82.6227 87.4206C82.6227 87.2665 82.6838 87.1186 82.7926 87.0093C82.8451 86.9542 82.9087 86.9107 82.9791 86.8816C83.0495 86.8525 83.1252 86.8385 83.2013 86.8404C83.2784 86.8377 83.3552 86.8513 83.4266 86.8804C83.498 86.9096 83.5624 86.9535 83.6155 87.0093C83.6714 87.0625 83.7153 87.1268 83.7444 87.1982C83.7736 87.2696 83.7872 87.3463 83.7845 87.4234C83.7872 87.5004 83.7736 87.5771 83.7444 87.6485C83.7153 87.7199 83.6714 87.7843 83.6155 87.8374C83.5619 87.8923 83.4973 87.9352 83.4259 87.9634C83.3545 87.9915 83.278 88.0043 83.2013 88.0009ZM82.7272 93.6722V88.7963H83.6809V93.6722H82.7272Z" fill="#262626"/>
<path d="M86.6511 93.7703C86.1921 93.7958 85.7417 93.6392 85.3976 93.3345C85.2424 93.1784 85.1215 92.9917 85.0427 92.7862C84.9639 92.5808 84.9288 92.3611 84.9398 92.1414C84.933 91.8437 85.0125 91.5504 85.1687 91.2969C85.3275 91.0563 85.5528 90.8671 85.8173 90.7521C86.1242 90.6097 86.46 90.5407 86.7982 90.5505C87.0163 90.551 87.2337 90.5748 87.4467 90.6214C87.6375 90.6687 87.8209 90.7421 87.9917 90.8393V90.5015C88.0037 90.3649 87.9876 90.2272 87.9445 90.097C87.9014 89.9668 87.8321 89.8468 87.741 89.7442C87.6373 89.6552 87.517 89.5876 87.3869 89.5455C87.2569 89.5034 87.1197 89.4877 86.9835 89.4991C86.7368 89.5023 86.4921 89.5446 86.2587 89.6244C86.0022 89.714 85.7586 89.8367 85.5339 89.9894L85.2614 89.2103C85.5286 89.0364 85.8208 88.9042 86.1279 88.8181C86.4412 88.7257 86.7659 88.6781 87.0925 88.6764C87.3374 88.6579 87.5835 88.6883 87.8165 88.7659C88.0495 88.8436 88.2647 88.9669 88.4495 89.1286C88.6109 89.3092 88.7342 89.5205 88.8119 89.7498C88.8897 89.9792 88.9202 90.2219 88.9018 90.4634V93.6668H87.9917V93.2255C87.8114 93.3999 87.5984 93.5369 87.365 93.6287C87.1378 93.7195 86.8957 93.7675 86.6511 93.7703ZM86.82 92.9477C87.0416 92.9477 87.2601 92.8955 87.4576 92.7951C87.6648 92.692 87.8499 92.5495 88.0026 92.3756V91.6401C87.8308 91.5463 87.6476 91.4748 87.4576 91.4277C87.2798 91.3799 87.0968 91.3543 86.9127 91.3514C86.631 91.3375 86.3522 91.4138 86.117 91.5693C86.0235 91.6367 85.9482 91.7263 85.8978 91.8299C85.8474 91.9335 85.8235 92.048 85.8282 92.1632C85.8224 92.2744 85.8425 92.3854 85.8869 92.4875C85.9314 92.5896 85.999 92.68 86.0843 92.7515C86.2972 92.9103 86.5608 92.9858 86.8255 92.964L86.82 92.9477Z" fill="#262626"/>
<path d="M94.5586 93.7703C94.1556 93.7817 93.7583 93.6727 93.4176 93.4573C93.0768 93.2418 92.8081 92.9297 92.6457 92.5608C92.4602 92.1427 92.369 91.6888 92.3787 91.2315C92.367 90.7594 92.46 90.2905 92.6512 89.8586C92.8172 89.4997 93.0842 89.1968 93.4196 88.9869C93.7501 88.7988 94.1218 88.6949 94.502 88.6845C94.8822 88.674 95.2591 88.7573 95.5995 88.927C95.918 89.1005 96.1764 89.3664 96.3406 89.6897C96.5457 90.096 96.6433 90.548 96.624 91.0027C96.624 91.079 96.624 91.1661 96.624 91.2751C96.624 91.3841 96.624 91.4876 96.624 91.602H93.3542C93.3758 91.8498 93.4423 92.0916 93.5504 92.3157C93.6502 92.5098 93.7985 92.675 93.9809 92.7951C94.1686 92.9118 94.3866 92.9706 94.6076 92.964C94.8124 92.9734 95.0167 92.9366 95.2053 92.8565C95.394 92.7763 95.5622 92.6548 95.6976 92.5009L96.2425 93.1002C96.0432 93.3064 95.8065 93.4727 95.545 93.5905C95.2346 93.7262 94.8969 93.7878 94.5586 93.7703ZM93.316 90.7957H95.6649C95.6656 90.5618 95.6193 90.3302 95.5286 90.1147C95.4473 89.9277 95.3151 89.7672 95.1471 89.6516C94.9702 89.5384 94.7631 89.4815 94.5531 89.4882C94.2414 89.4813 93.939 89.5944 93.7084 89.8041C93.5784 89.937 93.4766 90.0948 93.4092 90.268C93.3418 90.4412 93.3101 90.6263 93.316 90.812V90.7957Z" fill="#262626"/>
<path d="M102.728 93.7703C102.278 93.785 101.833 93.6817 101.436 93.4707C101.089 93.2835 100.795 93.0118 100.581 92.6807C100.361 92.3474 100.201 91.9788 100.106 91.5911C100.004 91.185 99.9529 90.7678 99.9539 90.349C99.9535 89.9356 100.005 89.5239 100.106 89.1232C100.206 88.7356 100.37 88.3673 100.591 88.0336C100.81 87.6999 101.105 87.4234 101.453 87.2273C101.844 87.0169 102.284 86.9136 102.728 86.9277C103.091 86.9165 103.453 86.9795 103.79 87.1129C104.062 87.2241 104.309 87.389 104.515 87.5978C104.693 87.7783 104.84 87.9862 104.951 88.2134L104.085 88.6438C103.985 88.4924 103.872 88.3501 103.747 88.2188C103.624 88.0989 103.48 88.0028 103.322 87.9355C103.088 87.85 102.839 87.817 102.591 87.8386C102.344 87.8603 102.104 87.9361 101.889 88.0608C101.661 88.2178 101.474 88.4271 101.344 88.671C101.203 88.9285 101.102 89.2059 101.044 89.4937C100.986 89.7843 100.956 90.0799 100.957 90.3762C100.957 90.6857 100.989 90.9944 101.055 91.2969C101.116 91.5837 101.224 91.8581 101.376 92.1087C101.511 92.342 101.697 92.5414 101.921 92.6916C102.162 92.8399 102.44 92.9156 102.722 92.9095C103.02 92.9076 103.309 92.8081 103.545 92.6263C103.765 92.46 103.95 92.2528 104.09 92.0161L104.979 92.343C104.856 92.6116 104.691 92.8583 104.488 93.073C104.279 93.3035 104.025 93.4888 103.741 93.6178C103.417 93.7348 103.072 93.7867 102.728 93.7703Z" fill="#262626"/>
<path d="M108.177 93.7702C107.878 93.784 107.578 93.7294 107.303 93.6105C107.027 93.4915 106.782 93.3114 106.586 93.0837C106.174 92.5529 105.967 91.8915 106.003 91.2205C105.993 90.7544 106.084 90.2917 106.27 89.864C106.428 89.502 106.69 89.1949 107.022 88.9814C107.368 88.7649 107.77 88.655 108.177 88.6654C108.586 88.6536 108.99 88.7615 109.338 88.976C109.672 89.1911 109.933 89.5028 110.085 89.8694C110.434 90.744 110.434 91.7189 110.085 92.5934C109.923 92.9532 109.662 93.2594 109.333 93.476C108.984 93.6837 108.583 93.7859 108.177 93.7702ZM108.177 92.8713C108.351 92.878 108.523 92.8417 108.679 92.7656C108.835 92.6896 108.97 92.5761 109.071 92.4354C109.306 92.0735 109.419 91.6458 109.393 91.2151C109.421 90.7842 109.308 90.356 109.071 89.9947C108.966 89.858 108.83 89.7472 108.676 89.671C108.521 89.5948 108.35 89.5551 108.177 89.5551C108.005 89.5551 107.834 89.5948 107.679 89.671C107.524 89.7472 107.389 89.858 107.284 89.9947C107.05 90.3591 106.937 90.7882 106.962 91.2205C106.938 91.6493 107.05 92.0748 107.284 92.4354C107.384 92.5788 107.518 92.6951 107.674 92.7741C107.83 92.853 108.003 92.892 108.177 92.8876V92.8713Z" fill="#262626"/>
<path d="M111.567 93.6722V88.7963H112.521V89.2866C112.662 89.0913 112.849 88.9341 113.066 88.829C113.294 88.7275 113.541 88.6773 113.791 88.6819C114.034 88.6655 114.279 88.7063 114.504 88.8008C114.729 88.8954 114.929 89.0412 115.088 89.2267C115.411 89.6873 115.565 90.2454 115.524 90.8066V93.6886H114.576V90.812C114.598 90.4831 114.508 90.1563 114.319 89.8859C114.231 89.7791 114.119 89.6947 113.992 89.6397C113.865 89.5848 113.727 89.5609 113.589 89.5699C113.441 89.5584 113.293 89.5798 113.154 89.6325C113.016 89.6853 112.891 89.7681 112.788 89.875C112.59 90.1392 112.495 90.4665 112.521 90.7957V93.6722H111.567Z" fill="#262626"/>
<path d="M118.935 93.7703C118.549 93.7769 118.17 93.6688 117.845 93.4598C117.524 93.2461 117.276 92.9403 117.131 92.5827C116.954 92.1512 116.868 91.6872 116.881 91.2207C116.868 90.7536 116.955 90.2892 117.137 89.8587C117.286 89.4996 117.539 89.1926 117.862 88.9761C118.197 88.7638 118.588 88.6558 118.984 88.6656C119.385 88.6512 119.781 88.7595 120.118 88.9761C120.436 89.1959 120.67 89.5165 120.783 89.8859L119.889 90.2019C119.822 90.0132 119.7 89.8484 119.54 89.7279C119.382 89.6125 119.191 89.5531 118.995 89.559C118.828 89.5532 118.662 89.5902 118.514 89.6665C118.365 89.7428 118.238 89.8558 118.145 89.9949C117.926 90.365 117.822 90.7915 117.845 91.2207C117.819 91.6467 117.924 92.0705 118.145 92.4356C118.234 92.5734 118.357 92.6857 118.502 92.7612C118.647 92.8367 118.81 92.8728 118.973 92.866C119.188 92.8715 119.399 92.8064 119.573 92.6807C119.747 92.5427 119.872 92.3513 119.927 92.1359L120.821 92.4247C120.714 92.8221 120.476 93.1716 120.145 93.4162C119.79 93.6612 119.366 93.7854 118.935 93.7703Z" fill="#262626"/>
<path d="M124.004 93.7703C123.598 93.785 123.197 93.6776 122.853 93.4619C122.509 93.2463 122.238 92.9324 122.074 92.5608C121.889 92.1427 121.798 91.6888 121.807 91.2315C121.796 90.7594 121.889 90.2905 122.08 89.8586C122.246 89.4997 122.513 89.1968 122.848 88.9869C123.179 88.7988 123.551 88.6949 123.931 88.6845C124.311 88.674 124.688 88.7573 125.028 88.927C125.347 89.1005 125.605 89.3664 125.769 89.6897C125.974 90.096 126.072 90.548 126.053 91.0027C126.053 91.079 126.053 91.1661 126.053 91.2751C126.053 91.3841 126.053 91.4876 126.053 91.602H122.783C122.805 91.8498 122.871 92.0916 122.979 92.3157C123.079 92.5098 123.227 92.675 123.41 92.7951C123.597 92.9118 123.815 92.9706 124.036 92.964C124.241 92.9734 124.445 92.9366 124.634 92.8565C124.823 92.7763 124.991 92.6548 125.126 92.5009L125.671 93.1002C125.472 93.3064 125.235 93.4727 124.974 93.5905C124.668 93.7237 124.336 93.7852 124.004 93.7703ZM122.761 90.7957H125.11C125.111 90.5618 125.064 90.3302 124.974 90.1147C124.892 89.9277 124.76 89.7672 124.592 89.6516C124.415 89.5384 124.208 89.4815 123.998 89.4882C123.686 89.4813 123.384 89.5944 123.153 89.8041C123.023 89.937 122.922 90.0948 122.854 90.268C122.787 90.4412 122.755 90.6263 122.761 90.812V90.7957Z" fill="#262626"/>
<path d="M128.669 93.7704C128.314 93.7705 127.964 93.6924 127.644 93.5415C127.336 93.4004 127.066 93.1897 126.854 92.9259L127.513 92.3811C127.665 92.557 127.85 92.7013 128.058 92.8061C128.25 92.9004 128.46 92.9506 128.674 92.9532C128.895 92.9665 129.114 92.9153 129.306 92.8061C129.376 92.7612 129.434 92.699 129.473 92.6256C129.512 92.5521 129.531 92.4698 129.53 92.3866C129.531 92.2743 129.495 92.1648 129.426 92.076C129.334 91.9605 129.216 91.8674 129.083 91.8036C128.869 91.6952 128.649 91.6006 128.423 91.5203C127.997 91.3832 127.603 91.1629 127.262 90.872C127.149 90.7556 127.06 90.6174 127.001 90.4657C126.942 90.3141 126.914 90.1521 126.919 89.9895C126.915 89.8066 126.954 89.6254 127.035 89.4613C127.116 89.2972 127.235 89.155 127.382 89.047C127.733 88.7933 128.159 88.6648 128.592 88.6819C128.919 88.6779 129.242 88.7448 129.54 88.8781C129.824 89.0017 130.075 89.188 130.276 89.4229L129.633 89.9677C129.501 89.8223 129.339 89.7069 129.159 89.6289C128.978 89.5509 128.783 89.5123 128.587 89.5155C128.396 89.5076 128.208 89.5529 128.042 89.6462C127.979 89.6825 127.927 89.735 127.892 89.7983C127.856 89.8616 127.838 89.9333 127.84 90.0058C127.843 90.0848 127.867 90.1617 127.908 90.2293C127.949 90.297 128.006 90.3531 128.074 90.3926C128.339 90.5606 128.625 90.6925 128.925 90.7849C129.232 90.8845 129.525 91.0237 129.797 91.1989C130.001 91.3251 130.17 91.5014 130.287 91.711C130.393 91.9163 130.445 92.1448 130.44 92.3757C130.448 92.5726 130.409 92.7687 130.327 92.9477C130.245 93.1268 130.121 93.2836 129.966 93.4053C129.588 93.6717 129.13 93.8005 128.669 93.7704Z" fill="#262626"/>
<path d="M133.219 93.7704C132.865 93.7705 132.515 93.6924 132.195 93.5416C131.886 93.4019 131.615 93.1909 131.404 92.9259L132.058 92.3811C132.213 92.5547 132.397 92.6987 132.603 92.8061C132.795 92.8997 133.005 92.9499 133.219 92.9532C133.441 92.9654 133.662 92.9144 133.857 92.8061C133.927 92.7612 133.984 92.6991 134.023 92.6256C134.062 92.5521 134.082 92.4698 134.08 92.3866C134.078 92.2749 134.042 92.1665 133.977 92.0761C133.882 91.9629 133.765 91.8703 133.633 91.8037C133.42 91.6953 133.199 91.6006 132.974 91.5204C132.548 91.3833 132.153 91.1629 131.813 90.872C131.699 90.7559 131.609 90.6178 131.549 90.4662C131.489 90.3146 131.46 90.1525 131.464 89.9895C131.461 89.8063 131.502 89.6249 131.583 89.4608C131.665 89.2968 131.785 89.1548 131.933 89.047C132.284 88.7926 132.71 88.664 133.143 88.682C133.469 88.6785 133.793 88.7454 134.091 88.8781C134.374 89.0017 134.626 89.188 134.827 89.4229L134.184 89.9677C134.051 89.8224 133.89 89.7069 133.709 89.6289C133.529 89.551 133.334 89.5123 133.137 89.5155C132.947 89.5076 132.758 89.5529 132.592 89.6463C132.529 89.6822 132.476 89.7346 132.44 89.7978C132.403 89.861 132.385 89.9329 132.385 90.0058C132.389 90.0846 132.413 90.1611 132.454 90.2286C132.495 90.2961 132.552 90.3524 132.62 90.3926C132.887 90.5593 133.174 90.6911 133.475 90.7849C133.782 90.8867 134.075 91.0258 134.347 91.1989C134.552 91.3251 134.72 91.5014 134.838 91.711C134.943 91.9163 134.996 92.1449 134.99 92.3757C134.999 92.5726 134.96 92.7687 134.878 92.9477C134.795 93.1268 134.671 93.2836 134.516 93.4054C134.138 93.6717 133.68 93.8005 133.219 93.7704Z" fill="#262626"/>
<path d="M138.178 93.7703C137.878 93.7845 137.579 93.7301 137.303 93.6111C137.027 93.4921 136.783 93.3118 136.587 93.0838C136.173 92.5542 135.965 91.8919 136.004 91.2206C135.993 90.755 136.083 90.2925 136.266 89.8641C136.428 89.4963 136.698 89.1857 137.038 88.9721C137.379 88.7585 137.776 88.6517 138.178 88.6655C138.587 88.6552 138.99 88.7631 139.339 88.976C139.672 89.186 139.935 89.4918 140.091 89.8532C140.275 90.2832 140.364 90.7477 140.353 91.2152C140.365 91.6833 140.274 92.1483 140.086 92.5772C139.928 92.9392 139.666 93.2463 139.334 93.4597C138.987 93.6734 138.586 93.7814 138.178 93.7703ZM138.93 88.0118C138.763 88.0122 138.597 87.9827 138.44 87.9246C138.293 87.8701 138.151 87.8102 138.02 87.7503C137.912 87.6988 137.801 87.6533 137.688 87.6141C137.582 87.5722 137.469 87.5518 137.355 87.5541C137.246 87.5521 137.138 87.5866 137.05 87.6522C137.006 87.693 136.97 87.7427 136.946 87.798C136.921 87.8533 136.909 87.9131 136.909 87.9736H136.434C136.431 87.7585 136.466 87.5446 136.538 87.3417C136.594 87.1719 136.705 87.0259 136.854 86.9276C137.018 86.8274 137.207 86.7764 137.399 86.7805C137.57 86.778 137.74 86.8075 137.9 86.8677C138.053 86.9222 138.195 86.9821 138.326 87.042C138.456 87.1019 138.549 87.1455 138.653 87.1837C138.753 87.2257 138.86 87.2479 138.969 87.249C139.082 87.2515 139.192 87.2128 139.279 87.1401C139.325 87.1002 139.361 87.0507 139.386 86.9951C139.41 86.9396 139.422 86.8793 139.421 86.8186H139.895C139.9 87.0316 139.866 87.2438 139.797 87.4452C139.736 87.6122 139.626 87.7566 139.481 87.8592C139.318 87.9693 139.127 88.0281 138.93 88.0281V88.0118ZM138.178 92.8714C138.352 92.8776 138.524 92.841 138.68 92.765C138.836 92.689 138.97 92.5759 139.072 92.4355C139.305 92.0725 139.417 91.6456 139.394 91.2152C139.419 90.7846 139.306 90.3572 139.072 89.9948C138.967 89.858 138.831 89.7473 138.676 89.6711C138.521 89.5948 138.351 89.5552 138.178 89.5552C138.006 89.5552 137.835 89.5948 137.68 89.6711C137.525 89.7473 137.39 89.858 137.285 89.9948C137.048 90.3581 136.935 90.788 136.963 91.2206C136.936 91.6497 137.049 92.0759 137.285 92.4355C137.384 92.5792 137.518 92.6958 137.674 92.7748C137.83 92.8538 138.004 92.8926 138.178 92.8877V92.8714Z" fill="#262626"/>
<path d="M143.552 93.7703C143.136 93.7805 142.726 93.6667 142.375 93.4435C142.045 93.2188 141.783 92.9079 141.617 92.5445C141.436 92.1252 141.347 91.6719 141.356 91.2152C141.341 90.7429 141.434 90.2734 141.628 89.8423C141.791 89.4812 142.059 89.1775 142.396 88.9707C142.746 88.7634 143.146 88.6577 143.552 88.6656C143.908 88.6607 144.261 88.745 144.576 88.9107C144.897 89.0838 145.157 89.3497 145.323 89.6734C145.524 90.0811 145.619 90.5324 145.601 90.9864C145.601 91.0627 145.601 91.1499 145.601 91.2588C145.601 91.3678 145.601 91.4713 145.574 91.5857H142.304C142.325 91.8343 142.393 92.0766 142.505 92.2994C142.601 92.4945 142.748 92.6601 142.931 92.7788C143.12 92.8954 143.34 92.9541 143.563 92.9477C143.761 92.9494 143.957 92.9124 144.14 92.8387C144.325 92.7538 144.492 92.6335 144.631 92.4846L145.176 93.0839C144.975 93.2901 144.736 93.4565 144.473 93.5742C144.184 93.7059 143.869 93.7728 143.552 93.7703ZM142.309 90.7957H144.658C144.657 90.5615 144.609 90.3299 144.516 90.1147C144.437 89.9284 144.306 89.768 144.14 89.6517C143.961 89.5402 143.752 89.4834 143.541 89.4882C143.229 89.4824 142.927 89.5954 142.696 89.8042C142.566 89.9368 142.465 90.0946 142.398 90.268C142.332 90.4414 142.301 90.6265 142.309 90.8121V90.7957Z" fill="#262626"/>
<path d="M148.233 93.7704C147.879 93.7712 147.529 93.6931 147.209 93.5416C146.899 93.4012 146.627 93.1904 146.413 92.9259L147.072 92.3811C147.227 92.5547 147.411 92.6987 147.617 92.8061C147.809 92.8997 148.02 92.9499 148.233 92.9532C148.454 92.9665 148.673 92.9154 148.865 92.8061C148.937 92.7623 148.996 92.7005 149.036 92.6269C149.076 92.5533 149.096 92.4704 149.094 92.3866C149.092 92.2749 149.056 92.1665 148.991 92.0761C148.894 91.9624 148.776 91.8697 148.642 91.8037C148.43 91.6951 148.212 91.6005 147.988 91.5204C147.561 91.3846 147.166 91.1641 146.827 90.872C146.712 90.7566 146.621 90.6187 146.561 90.4669C146.501 90.3151 146.473 90.1526 146.478 89.9895C146.475 89.8063 146.516 89.6249 146.597 89.4608C146.679 89.2968 146.799 89.1548 146.947 89.047C147.298 88.7926 147.724 88.664 148.157 88.682C148.482 88.6779 148.803 88.7448 149.1 88.8781C149.385 89.0002 149.639 89.1866 149.841 89.4229L149.198 89.9677C149.065 89.8217 148.902 89.7058 148.721 89.6278C148.539 89.5498 148.343 89.5115 148.146 89.5155C147.956 89.507 147.767 89.5523 147.601 89.6463C147.538 89.6822 147.485 89.7346 147.448 89.7978C147.412 89.861 147.393 89.9329 147.394 90.0058C147.397 90.0848 147.42 90.1617 147.461 90.2294C147.502 90.297 147.56 90.3532 147.628 90.3926C147.896 90.5593 148.183 90.6911 148.484 90.7849C148.789 90.8859 149.08 91.025 149.35 91.1989C149.556 91.3172 149.725 91.4893 149.839 91.6968C149.953 91.9042 150.009 92.139 149.999 92.3757C150.007 92.5726 149.969 92.7687 149.886 92.9477C149.804 93.1268 149.68 93.2836 149.525 93.4054C149.148 93.6705 148.693 93.7993 148.233 93.7704Z" fill="#262626"/>
<path d="M23.0307 85.4131C22.8726 85.4131 22.6601 85.3804 22.4094 85.3423C22.0575 85.2905 21.7097 85.214 21.3685 85.1134C20.3089 84.7772 19.3846 84.111 18.7308 83.2121C18.1452 82.32 17.8431 81.2717 17.8643 80.2048C17.8505 79.9889 17.8505 79.7724 17.8643 79.5565V73.6127L13.2974 69.5594H1.45512C1.16201 69.5601 0.875996 69.6496 0.634806 69.8161C0.393615 69.9826 0.208581 70.2183 0.104112 70.4921C-0.000357447 70.7659 -0.0193532 71.0649 0.0496302 71.3497C0.118614 71.6345 0.272335 71.8916 0.490517 72.0873L23.8808 92.8496C24.0902 93.0343 24.3486 93.1546 24.6247 93.1961C24.9009 93.2375 25.1832 93.1984 25.4376 93.0833C25.692 92.9682 25.9078 92.7821 26.059 92.5473C26.2101 92.3126 26.2902 92.0392 26.2896 91.76V85.4185H23.0198L23.0307 85.4131Z" fill="#262626"/>
<path d="M13.777 68.3228L15.1667 69.554L17.8916 71.9566V65.5062C17.8853 65.1191 17.9163 64.7323 17.9842 64.3512C18.1822 63.0998 18.8484 61.9703 19.848 61.1914C20.8742 60.5014 22.0886 60.1456 23.325 60.1726H26.2733V55.4438C26.2719 55.0632 26.1208 54.6984 25.8526 54.4283C25.5844 54.1582 25.2207 54.0043 24.84 54H1.45515C1.16069 53.9978 0.872595 54.0856 0.629465 54.2517C0.386334 54.4177 0.199792 54.6541 0.0948425 54.9292C-0.0101073 55.2042 -0.0284495 55.5047 0.0422746 55.7905C0.112999 56.0762 0.269409 56.3335 0.490541 56.5279L13.777 68.3228Z" fill="#262626"/>
<path d="M33.456 62.2865C33.4566 62.0632 33.3817 61.8463 33.2435 61.6708C33.0096 61.4889 32.7159 61.4014 32.4206 61.4257C30.4914 61.3984 28.0989 61.4257 28.0989 61.4257H23.7391C23.6138 61.4257 23.4884 61.4257 23.3577 61.4257C22.3745 61.3911 21.405 61.6633 20.5837 62.2047C19.829 62.806 19.3336 63.6737 19.1995 64.6291C19.1363 64.9172 19.1034 65.2112 19.1014 65.5062V79.6056C19.1014 79.7364 19.1014 79.927 19.1014 80.1504C19.0737 80.9825 19.2998 81.8034 19.7499 82.5039C20.2419 83.1779 20.9343 83.6794 21.7282 83.9368C22.0165 84.0183 22.3095 84.082 22.6056 84.1274C22.8181 84.1601 23.0034 84.1765 23.1506 84.1874H28.1752C28.454 84.1866 28.7325 84.1684 29.009 84.1329C29.7284 84.0719 30.4276 83.8642 31.0636 83.5227C31.4286 83.3169 31.761 83.058 32.05 82.7545C32.3956 82.3833 32.6659 81.9485 32.8457 81.4743C33.1292 80.7804 33.2932 80.0436 33.3307 79.2951C33.3715 78.7747 33.3715 78.2519 33.3307 77.7315L33.456 63.1581C33.5057 62.8697 33.5057 62.5749 33.456 62.2865Z" fill="#262626"/>
</svg>
