<?xml version="1.0" standalone="no"?>
<!DOCTYPE svg PUBLIC "-//W3C//DTD SVG 20010904//EN"
 "http://www.w3.org/TR/2001/REC-SVG-20010904/DTD/svg10.dtd">
<svg version="1.0" xmlns="http://www.w3.org/2000/svg"
 width="2027.000000pt" height="1608.000000pt" viewBox="0 0 2027.000000 1608.000000"
 preserveAspectRatio="xMidYMid meet">

<g transform="translate(0.000000,1608.000000) scale(0.100000,-0.100000)"
fill="#F45520" stroke="none">
<path d="M7790 16074 c-505 -28 -835 -67 -1249 -149 -1931 -381 -3669 -1475
-4859 -3060 -468 -624 -833 -1291 -1107 -2025 -452 -1207 -603 -2542 -434
-3840 188 -1455 774 -2831 1694 -3978 182 -227 374 -444 389 -439 6 2 199 68
428 148 l416 143 -116 121 c-241 248 -417 453 -620 724 -1037 1379 -1541 3093
-1421 4826 139 2010 1110 3863 2689 5130 1045 838 2300 1369 3620 1530 522 63
1095 70 1605 19 1960 -197 3725 -1165 4958 -2720 195 -247 401 -549 576 -849
108 -184 330 -630 410 -825 191 -461 338 -946 421 -1385 18 -93 34 -176 36
-182 3 -10 95 -13 418 -13 l415 0 -4 28 c-84 468 -126 656 -207 942 -342 1210
-943 2294 -1789 3225 -153 169 -481 493 -639 631 -1336 1170 -2961 1850 -4740
1984 -146 11 -768 21 -890 14z"/>
<path d="M2647 11336 c-182 -49 -279 -266 -193 -434 104 -204 387 -228 520
-45 126 174 42 419 -164 477 -67 19 -98 19 -163 2z"/>
<path d="M4335 11050 c-157 -61 -235 -258 -164 -411 51 -108 144 -171 264
-177 284 -15 430 328 225 527 -79 77 -216 103 -325 61z"/>
<path d="M3275 10666 c-41 -18 -95 -81 -97 -114 -4 -79 17 -135 74 -194 18
-19 233 -177 476 -352 332 -237 2880 -2096 2960 -2159 9 -7 43 4 120 41 131
64 218 79 343 62 240 -33 427 -186 505 -415 38 -108 40 -264 7 -370 -65 -206
-241 -372 -444 -420 -430 -101 -827 274 -745 705 12 67 13 87 3 96 -6 6 -727
548 -1602 1204 -875 656 -1608 1209 -1630 1229 -22 20 -217 167 -433 326 -430
317 -456 332 -559 320 -95 -11 -163 -80 -163 -164 0 -52 38 -128 86 -172 16
-15 245 -182 509 -371 629 -451 3383 -2481 3413 -2516 34 -39 62 -102 62 -140
0 -46 -32 -104 -72 -127 -45 -26 -120 -25 -178 3 -25 12 -612 443 -1305 958
-1867 1387 -2317 1719 -2355 1739 -51 27 -167 32 -211 10 -85 -43 -119 -108
-98 -188 23 -91 55 -119 579 -495 637 -456 887 -644 1720 -1292 1201 -934
1714 -1307 2332 -1693 l217 -136 57 34 c106 64 172 80 324 80 122 -1 141 -3
202 -27 176 -70 309 -204 368 -371 113 -320 -47 -661 -368 -784 -52 -20 -91
-27 -176 -31 -132 -6 -192 6 -304 60 -103 49 -210 150 -265 249 -70 125 -95
297 -63 432 l14 58 -2042 1532 c-2050 1539 -2894 2169 -2961 2208 -51 31 -160
37 -220 14 -120 -45 -137 -186 -37 -297 20 -22 231 -180 471 -351 335 -240
712 -528 1636 -1250 785 -614 1206 -949 1218 -970 44 -78 -16 -177 -108 -177
-25 0 -60 7 -77 16 -17 9 -495 357 -1063 774 -568 417 -1051 768 -1074 780
-47 23 -126 29 -159 11 -33 -18 -73 -77 -83 -122 -13 -57 10 -135 54 -180 26
-27 2815 -2067 2875 -2103 10 -6 39 4 91 32 124 65 171 77 301 77 95 0 128 -4
189 -24 155 -51 291 -170 361 -316 49 -104 62 -159 61 -275 -1 -350 -302 -631
-647 -606 -253 18 -462 179 -545 416 -31 88 -38 251 -15 340 13 52 14 66 4 76
-28 27 -2001 1464 -2010 1464 -5 0 -25 -34 -45 -76 -33 -70 -37 -86 -41 -184
-5 -132 11 -214 71 -355 178 -416 665 -941 1477 -1594 373 -300 628 -491 1300
-972 488 -350 519 -372 519 -379 0 -3 -941 -386 -2092 -852 l-2093 -848 -933
-496 c-512 -273 -930 -498 -928 -500 9 -10 862 189 1403 326 3082 781 6848
2110 9789 3453 754 344 1948 938 1899 944 -19 3 -835 60 -1249 88 -631 42
-1024 115 -1200 220 -145 88 -308 225 -544 458 -399 395 -707 798 -900 1177
-97 189 -117 245 -231 627 -270 904 -423 1336 -600 1698 -121 247 -206 373
-344 510 -127 126 -210 179 -364 231 -165 56 -262 68 -562 67 -148 0 -353 -7
-465 -16 -110 -9 -342 -26 -515 -38 -173 -11 -330 -23 -349 -25 l-33 -5 23
-26 c59 -62 512 -400 853 -634 l99 -69 26 19 c164 116 415 135 606 47 121 -56
238 -175 295 -301 41 -89 55 -159 54 -265 -3 -259 -167 -485 -414 -571 -88
-30 -250 -38 -341 -15 -224 56 -401 235 -453 456 -20 83 -20 197 -1 279 15 64
15 65 -7 87 -50 49 -1467 1078 -1523 1106 -76 39 -166 48 -214 24 -91 -47 -75
-193 34 -313 23 -27 219 -181 434 -343 292 -221 393 -302 401 -324 29 -82 -3
-157 -82 -190 -42 -17 -53 -18 -103 -7 -50 11 -106 50 -583 406 -1086 812
-1367 1018 -1405 1031 -49 17 -152 17 -192 0z"/>
<path d="M1435 10282 c-144 -69 -212 -235 -155 -385 94 -250 447 -264 562 -22
33 71 38 163 11 241 -23 67 -110 154 -177 177 -78 27 -170 22 -241 -11z"/>
<path d="M7070 9390 c-108 -18 -206 -91 -260 -192 -30 -55 -35 -74 -38 -153
-3 -74 0 -100 18 -147 30 -80 104 -159 188 -200 60 -30 75 -33 157 -33 76 0
99 4 145 26 213 101 284 353 154 546 -57 83 -135 133 -239 152 -64 12 -60 12
-125 1z"/>
<path d="M1593 8500 c-192 -97 -232 -345 -78 -494 124 -121 327 -112 443 19
102 116 99 299 -6 408 -66 69 -114 91 -211 95 -80 3 -90 2 -148 -28z"/>
<path d="M18550 8510 c-681 -39 -1365 -134 -1870 -260 -136 -34 -214 -58 -400
-124 -25 -8 -193 -65 -375 -125 -308 -103 -397 -127 -485 -133 -27 -2 55 -36
359 -146 l394 -143 146 64 c826 364 1900 610 2901 667 307 17 788 10 1000 -15
43 -5 44 -5 25 11 -38 32 -181 92 -275 118 -116 31 -237 52 -417 72 -162 18
-780 27 -1003 14z"/>
<path d="M14870 7862 c-152 -43 -323 -128 -455 -228 -185 -138 -332 -288 -685
-699 -580 -675 -946 -960 -1443 -1123 -140 -46 -382 -102 -443 -102 -40 0 -55
-12 -152 -123 l-91 -105 72 -6 c39 -3 338 -22 664 -42 l592 -36 86 52 c179
108 823 540 2185 1465 382 260 730 492 773 515 43 23 77 44 75 45 -2 2 -215
92 -473 200 -466 195 -471 197 -555 201 -62 3 -102 -1 -150 -14z m35 -236
c163 -75 218 -275 118 -427 -94 -143 -309 -163 -437 -41 -58 56 -86 123 -86
207 0 117 64 216 170 264 65 30 169 28 235 -3z"/>
<path d="M14748 7510 c-69 -21 -108 -73 -108 -145 0 -188 261 -204 296 -18 8
44 -30 122 -71 144 -39 22 -84 29 -117 19z"/>
<path d="M6945 7717 c-72 -24 -120 -54 -168 -106 -75 -80 -92 -126 -92 -251 0
-100 1 -108 34 -168 145 -267 525 -258 658 16 24 50 27 69 28 152 0 88 -3 101
-32 161 -62 125 -172 198 -311 205 -48 2 -92 -1 -117 -9z"/>
<path d="M7074 5911 c-100 -26 -201 -107 -242 -194 -71 -152 -45 -306 72 -423
83 -83 147 -107 271 -102 112 4 183 36 255 115 66 72 93 145 94 248 1 70 -3
89 -31 147 -62 131 -173 207 -312 214 -42 2 -90 0 -107 -5z"/>
<path d="M14965 5771 c-3 -5 -23 -62 -45 -125 -501 -1452 -1515 -2752 -2825
-3621 -1465 -972 -3191 -1367 -4960 -1135 -545 71 -1153 229 -1669 434 l-139
55 -496 -205 c-273 -114 -500 -210 -505 -214 -10 -9 275 -155 500 -256 1452
-650 3072 -853 4654 -583 632 108 1301 310 1890 572 2069 919 3665 2683 4375
4832 34 105 66 205 70 223 l7 32 -426 0 c-249 0 -427 -4 -431 -9z"/>
<path d="M5320 5506 c-147 -33 -259 -141 -296 -286 -46 -179 45 -368 216 -449
48 -23 68 -26 160 -26 93 0 112 3 162 27 81 37 152 108 191 187 29 61 32 74
32 166 0 88 -3 107 -27 158 -55 117 -166 203 -292 226 -71 13 -75 13 -146 -3z"/>
</g>
</svg>
