<svg width="150" height="150" viewBox="0 0 150 150" fill="none" xmlns="http://www.w3.org/2000/svg">
<path d="M74.4568 39.8912C73.6703 40.0978 73.0437 40.7243 72.8305 41.5242C72.7438 41.8507 72.7505 42.3706 72.8471 42.6906C73.2004 43.8436 74.2968 44.5268 75.4499 44.3102C75.8964 44.2269 76.2997 44.0103 76.6329 43.677C77.0762 43.2304 77.2928 42.7106 77.2928 42.0907C77.2928 41.7041 77.2295 41.4342 77.0429 41.0576C76.8629 40.6877 76.453 40.2678 76.0931 40.0811C75.6032 39.8279 74.98 39.7545 74.4568 39.8912Z" fill="#262626"/>
<path d="M59.4768 44.2801C59.4635 44.2901 59.4535 51.2886 59.4535 59.8267V75.3499H60.1533H60.8532V63.4259L60.8565 51.5052L60.9465 51.6085C60.9965 51.6652 61.1864 51.8885 61.3697 52.1084C61.8063 52.6283 62.8661 53.6881 63.5359 54.2746C66.052 56.4741 69.6546 58.8569 74.3169 61.403C76.7463 62.7294 78.4759 63.7958 80.2155 65.0422C83.4648 67.3717 86.1242 69.9644 87.8572 72.5005C88.4637 73.3903 89.0602 74.4701 89.3402 75.1833L89.4768 75.5332H90.02H90.5632L90.5732 59.91L90.5799 44.2901H89.8801H89.1802L89.1769 47.3628C89.1736 49.0558 89.1602 54.1646 89.1502 58.7169L89.1302 66.9984L89.0336 66.8485C88.3237 65.7687 86.944 64.2524 85.581 63.056C83.0716 60.8598 80.0789 58.8236 75.7799 56.3941C72.4373 54.5079 69.8045 52.7316 67.515 50.8187C65.0356 48.7458 63.1627 46.6729 61.9096 44.6234L61.6963 44.2735L60.5966 44.2635C59.9934 44.2602 59.4901 44.2668 59.4768 44.2801Z" fill="#262626"/>
<path d="M74.7001 75.0867C74.1902 75.1634 73.797 75.3666 73.417 75.7499C73.2038 75.9598 73.1005 76.0965 73.0071 76.2831C72.6672 76.9663 72.6672 77.7028 73.0071 78.3826C73.1771 78.7192 73.6037 79.1525 73.9336 79.3224C74.3202 79.5224 74.6135 79.5957 75.0167 79.5957C75.6832 79.5924 76.2164 79.3591 76.6763 78.8659C77.0629 78.4526 77.2429 78.0261 77.2729 77.4495C77.3095 76.7797 77.0996 76.2331 76.6163 75.7466C76.3864 75.5133 76.2797 75.4333 76.0498 75.3233C75.8932 75.2467 75.6832 75.1634 75.5799 75.1367C75.3233 75.0734 74.9367 75.05 74.7001 75.0867Z" fill="#262626"/>
<path d="M37.2751 91.2131C35.2322 91.443 33.6992 92.8127 33.3259 94.7456C32.996 96.4386 33.5959 98.1315 34.8756 99.128C36.1087 100.088 37.8383 100.368 39.3779 99.8578C40.7376 99.4046 41.7907 98.3282 42.1873 96.9918C42.3773 96.3419 42.4273 95.4855 42.3139 94.8556C41.9674 92.9627 40.581 91.5963 38.6614 91.2631C38.3015 91.1997 37.6183 91.1764 37.2751 91.2131ZM38.5714 91.8663C39.3546 91.9962 40.1011 92.3861 40.651 92.9593C41.2675 93.6025 41.5974 94.3357 41.6908 95.2788C41.8074 96.4386 41.3808 97.6416 40.5777 98.4248C39.4179 99.5512 37.525 99.8312 36.012 99.1013C34.6756 98.4548 33.8925 97.1751 33.8925 95.6354C33.8925 93.8092 35.0556 92.3262 36.8185 91.9096C37.3717 91.7763 37.9449 91.7629 38.5714 91.8663Z" fill="#262626"/>
<path d="M88.7636 91.2631C87.9438 91.3964 87.2939 91.723 86.9107 92.1929C86.5874 92.5928 86.4475 93.0027 86.4475 93.5626C86.4475 94.2991 86.7274 94.8389 87.3139 95.2289C87.7438 95.5155 88.1404 95.6588 89.3468 95.9654C90.3699 96.2253 90.7132 96.3386 91.0598 96.5219C91.5896 96.8052 91.8696 97.1951 91.9029 97.705C91.9362 98.2015 91.7829 98.6114 91.443 98.928C90.9964 99.3413 90.3233 99.5446 89.4135 99.5446C88.3504 99.5446 87.2773 99.168 86.6241 98.5681L86.4874 98.4415L86.3475 98.6748C86.2708 98.8047 86.2142 98.9314 86.2242 98.958C86.2508 99.0247 86.6574 99.3413 86.8974 99.4879C88.2071 100.268 90.3133 100.341 91.503 99.6412C91.7896 99.4712 92.1762 99.0747 92.3195 98.7947C92.5328 98.3815 92.6127 97.9283 92.5461 97.495C92.4128 96.6052 91.8629 96.0753 90.6965 95.7021C90.4966 95.6354 89.9633 95.4921 89.5168 95.3788C88.3404 95.0822 87.9071 94.9056 87.5405 94.579C86.924 94.0291 86.9407 92.9927 87.5839 92.3995C88.4537 91.593 90.3799 91.5863 91.7196 92.3795C91.8463 92.4561 91.9562 92.5128 91.9629 92.5061C91.9662 92.5028 92.0262 92.3895 92.0929 92.2562L92.2128 92.0162L92.1295 91.9529C91.8496 91.7296 91.1231 91.4397 90.5399 91.3097C90.1266 91.2197 89.1935 91.1931 88.7636 91.2631Z" fill="#262626"/>
<path d="M21.9951 95.6454V100.044H22.3117H22.6283L22.635 96.2419L22.645 92.4361L25.6276 96.2419L28.607 100.044H28.8836H29.1602L29.1535 95.6521L29.1435 91.2631L28.8203 91.2531L28.4937 91.2431L28.487 95.0455L28.477 98.8447L25.511 95.0489L22.545 91.2497H22.2717L21.9951 91.2464V95.6454Z" fill="#262626"/>
<path d="M46.4796 91.2664C46.4663 91.2797 46.4563 93.2593 46.4563 95.6687V100.044H46.7896H47.1228V98.6148V97.1851L48.7325 97.1684C49.6156 97.1617 50.3688 97.1451 50.4054 97.1317C50.4621 97.1151 50.6154 97.3117 51.5185 98.5781L52.5616 100.044H52.9282H53.2948L53.2315 99.9511C53.1981 99.8978 52.7182 99.218 52.1617 98.4415C51.6052 97.665 51.1553 97.0118 51.1586 96.9951C51.1653 96.9751 51.2686 96.9218 51.3919 96.8751C52.3483 96.5019 52.9449 95.7854 53.1182 94.7989C53.1715 94.5023 53.1615 93.8491 53.1015 93.5525C52.8582 92.3561 51.9784 91.5896 50.5554 91.3264C50.2854 91.2764 49.9722 91.2664 48.3725 91.2531C47.3461 91.2464 46.4963 91.2531 46.4796 91.2664ZM50.2055 91.8796C51.4485 92.0229 52.2117 92.6128 52.435 93.6025C52.5016 93.9025 52.505 94.5157 52.4383 94.8289C52.3083 95.4521 51.8951 95.9787 51.3152 96.2586C50.702 96.5552 50.2488 96.6119 48.4159 96.6119H47.1228V94.2291V91.8463H48.5158C49.279 91.8463 50.0388 91.8629 50.2055 91.8796Z" fill="#262626"/>
<path d="M57.3872 95.6454V100.044H57.7038H58.0204L58.0271 96.3253L58.0371 92.6094L59.8533 95.7421L61.6696 98.878L61.8462 98.868L62.0228 98.8614L63.8458 95.7154L65.6687 92.5728L65.6787 96.3086L65.6854 100.044H66.002H66.3186L66.3119 95.6521L66.3019 91.2631H66.0386H65.7753L63.8224 94.6356C62.7493 96.4919 61.8629 98.0116 61.8529 98.0116C61.8429 98.0116 60.9597 96.4919 59.8867 94.6356L57.9371 91.2631L57.6605 91.2531L57.3872 91.2431V95.6454Z" fill="#262626"/>
<path d="M73.7702 91.403C73.7369 91.473 72.8404 93.4192 71.7773 95.7287C70.7142 98.0382 69.8311 99.9545 69.8144 99.9844C69.7845 100.041 69.8111 100.044 70.141 100.044L70.501 100.041L71.0508 98.818L71.6007 97.595H74.1468H76.6929L76.8895 98.0282C76.9962 98.2648 77.2528 98.8247 77.4561 99.2679L77.826 100.078H78.1693C78.3592 100.078 78.5158 100.071 78.5158 100.064C78.5158 100.058 77.6094 98.0815 76.5063 95.6721L74.4934 91.2964L74.1635 91.2864L73.8302 91.2764L73.7702 91.403ZM75.2966 94.519C75.9131 95.8687 76.4163 96.9918 76.4163 97.0084C76.4163 97.0351 75.7165 97.0451 74.1468 97.0451C72.1873 97.0451 71.8807 97.0384 71.8907 96.9984C71.9173 96.8718 74.1368 92.0195 74.1568 92.0395C74.1701 92.0529 74.6834 93.1693 75.2966 94.519Z" fill="#262626"/>
<path d="M96.6118 95.6787V100.078H96.9217H97.235L97.255 96.9718C97.2683 95.2655 97.2783 93.2859 97.2783 92.5728V91.2797H96.9451H96.6118V95.6787Z" fill="#262626"/>
<path d="M102.184 95.6688L102.194 100.061H105.043H107.893V99.7779V99.4946L105.37 99.4846L102.844 99.478V95.3789V91.2798H102.511H102.177L102.184 95.6688Z" fill="#262626"/>
<path d="M109.302 91.3365C109.319 91.3698 110.199 93.3493 111.262 95.7388L113.192 100.081L113.518 100.071L113.848 100.061L115.794 95.6988C116.864 93.296 117.741 91.3198 117.741 91.3065C117.741 91.2931 117.594 91.2798 117.414 91.2798H117.084L115.324 95.2189C114.358 97.3884 113.558 99.1714 113.545 99.1847C113.535 99.198 112.732 97.4218 111.759 95.2423L109.992 91.2798H109.632C109.302 91.2798 109.276 91.2831 109.302 91.3365Z" fill="#262626"/>
<path d="M121.376 95.5855C120.287 97.955 119.373 99.9379 119.35 99.9879L119.303 100.081L119.663 100.071L120.02 100.061L120.57 98.8381L121.123 97.6117L123.672 97.6217L126.219 97.6284L126.775 98.8448L127.332 100.061L127.685 100.071C128.005 100.078 128.035 100.075 128.015 100.025C128.005 99.9945 127.098 98.0183 126.002 95.6322L124.009 91.2965L123.682 91.2865L123.356 91.2798L121.376 95.5855ZM124.826 94.5457L125.962 97.0452H123.682C121.523 97.0452 121.4 97.0419 121.423 96.9852C121.493 96.8019 123.659 92.0463 123.672 92.0463C123.682 92.0463 124.202 93.1727 124.826 94.5457Z" fill="#262626"/>
<path d="M68.4981 104.224C67.7849 104.36 67.2784 104.613 66.8318 105.06C66.2486 105.64 65.9553 106.416 65.9953 107.293C66.0153 107.783 66.102 108.123 66.3019 108.526C66.6352 109.189 67.165 109.659 67.8849 109.932C68.728 110.249 69.7445 110.199 70.5276 109.809C70.8809 109.632 71.0642 109.492 71.3574 109.179C71.7207 108.789 71.904 108.453 72.0573 107.883C72.1106 107.679 72.1239 107.526 72.1239 107.16C72.1239 106.793 72.1106 106.64 72.0573 106.436C71.904 105.873 71.724 105.533 71.3708 105.153C70.9709 104.72 70.4543 104.417 69.8811 104.277C69.5212 104.187 68.8313 104.16 68.4981 104.224ZM69.7345 104.823C70.5676 105.05 71.2008 105.68 71.4208 106.5C71.5207 106.86 71.5207 107.456 71.4241 107.813C71.2008 108.639 70.6343 109.216 69.7845 109.479C69.4579 109.582 68.7247 109.592 68.3848 109.499C67.6083 109.286 66.9884 108.709 66.7318 107.959C66.6585 107.739 66.6385 107.616 66.6252 107.27C66.6085 106.743 66.6652 106.46 66.8751 106.033C66.9984 105.787 67.0817 105.673 67.2984 105.46C67.6849 105.08 68.0815 104.87 68.5881 104.78C68.838 104.733 69.4945 104.76 69.7345 104.823Z" fill="#262626"/>
<path d="M76.8363 104.214C75.2333 104.447 74.1636 105.756 74.2602 107.356C74.3135 108.209 74.6668 108.919 75.3 109.452C75.5799 109.686 76.0831 109.942 76.483 110.049C76.7263 110.112 76.8463 110.122 77.3329 110.122C77.996 110.119 78.2427 110.069 78.7325 109.826C79.0191 109.686 79.3891 109.412 79.4324 109.312C79.4457 109.282 79.3824 109.192 79.2624 109.072L79.0725 108.879L78.9058 109.029C78.5293 109.369 78.0727 109.539 77.4795 109.566C76.4297 109.616 75.5632 109.132 75.1367 108.266C74.9334 107.846 74.8701 107.536 74.8934 107.046C74.9401 105.943 75.6066 105.12 76.6863 104.823C76.9829 104.74 77.7161 104.74 78.016 104.823C78.3026 104.903 78.7125 105.117 78.9125 105.297L79.0725 105.44L79.2691 105.24L79.4657 105.04L79.2758 104.86C78.7225 104.34 77.7428 104.08 76.8363 104.214Z" fill="#262626"/>
<path d="M91.0965 104.227C89.7601 104.437 88.807 105.347 88.5837 106.623C88.5304 106.916 88.5404 107.509 88.6004 107.803C88.747 108.523 89.1369 109.129 89.7301 109.569C90.0834 109.829 90.4633 109.989 90.9765 110.092C91.3531 110.169 92.0796 110.146 92.4628 110.046C92.8461 109.946 93.3026 109.706 93.5526 109.476L93.7625 109.282L93.5793 109.096C93.4793 108.992 93.386 108.909 93.3726 108.909C93.3593 108.909 93.2527 108.986 93.1393 109.079C92.7161 109.419 92.2429 109.576 91.6297 109.576C91.1964 109.576 90.8832 109.509 90.5299 109.342C89.6568 108.936 89.1769 108.169 89.1736 107.176C89.1702 106.71 89.2236 106.473 89.4268 106.06C89.7334 105.44 90.3033 104.993 91.0065 104.82C91.3098 104.747 91.9529 104.747 92.2629 104.823C92.5661 104.897 92.9161 105.07 93.166 105.273L93.3693 105.44L93.5626 105.24L93.7592 105.043L93.6759 104.957C93.4559 104.72 93.0194 104.467 92.5961 104.333C92.1229 104.184 91.593 104.147 91.0965 104.227Z" fill="#262626"/>
<path d="M46.0098 104.383C45.9665 104.48 45.3699 105.793 44.6768 107.303C43.9869 108.809 43.4237 110.049 43.4237 110.059C43.4237 110.069 43.5703 110.076 43.7503 110.076L44.0736 110.072L44.4235 109.292L44.7701 108.509H46.3897H48.0094L48.3593 109.282L48.7092 110.059L49.0458 110.069L49.3824 110.079L48.7925 108.786C48.4693 108.076 47.8661 106.753 47.4528 105.853L46.7063 104.21H46.3964H46.0898L46.0098 104.383ZM47.1262 106.526L47.7794 107.993L47.0862 108.003C46.703 108.006 46.0764 108.006 45.6965 108.003L45.0034 107.993L45.6299 106.593C45.9731 105.823 46.2864 105.127 46.3264 105.043C46.3964 104.893 46.3997 104.893 46.4364 104.977C46.4564 105.023 46.7663 105.72 47.1262 106.526Z" fill="#262626"/>
<path d="M51.6118 104.234C51.5985 104.244 51.5885 105.563 51.5885 107.166V110.076H53.0082C54.3012 110.076 54.4579 110.069 54.7578 110.009C55.9042 109.776 56.694 109.079 57.0073 108.026C57.1139 107.659 57.1506 107.046 57.0873 106.656C56.8707 105.313 55.8675 104.407 54.4112 104.247C54.0646 104.207 51.6485 104.197 51.6118 104.234ZM54.6212 104.843C55.5443 105.033 56.2475 105.697 56.4374 106.563C56.5174 106.92 56.4941 107.636 56.3874 107.943C56.2708 108.289 56.0942 108.576 55.8409 108.826C55.451 109.209 55.0011 109.422 54.4079 109.506C54.2679 109.526 53.7147 109.542 53.1848 109.542H52.2217V107.16V104.777H53.2648C54.1646 104.777 54.3479 104.787 54.6212 104.843Z" fill="#262626"/>
<path d="M58.6769 104.234C58.6703 104.247 59.2468 105.573 59.9567 107.176L61.2497 110.092H61.5563H61.8662L63.1593 107.176C63.8691 105.573 64.4523 104.25 64.4523 104.234C64.4523 104.22 64.319 104.21 64.1524 104.21C63.8791 104.21 63.8491 104.217 63.8058 104.284C63.7825 104.327 63.2692 105.467 62.6694 106.82C62.0695 108.173 61.5696 109.272 61.563 109.262C61.5563 109.256 61.0497 108.119 60.4432 106.74L59.3368 104.227L59.0135 104.217C58.8369 104.214 58.6869 104.22 58.6769 104.234Z" fill="#262626"/>
<path d="M82.295 107.146C81.5652 108.746 80.9653 110.062 80.9653 110.072C80.9653 110.082 81.102 110.096 81.2719 110.102C81.5619 110.112 81.5819 110.106 81.6252 110.036C81.6518 109.992 81.8118 109.639 81.9851 109.252L82.2984 108.543H83.9313H85.5643L85.9142 109.326L86.2608 110.109H86.5874C86.7674 110.109 86.914 110.099 86.914 110.082C86.9107 110.069 86.3141 108.753 85.5876 107.16L84.2613 104.26L83.9413 104.25L83.6247 104.24L82.295 107.146ZM84.6312 106.46C85.0044 107.3 85.3077 107.993 85.301 107.999C85.2977 108.006 84.6745 108.006 83.9213 108.003L82.5516 107.993L83.2382 106.453C83.6181 105.607 83.9313 104.917 83.938 104.92C83.9413 104.927 84.2546 105.62 84.6312 106.46Z" fill="#262626"/>
<path d="M96.3119 107.176V110.109H96.6285H96.9451V107.176V104.244H96.6285H96.3119V107.176Z" fill="#262626"/>
<path d="M101.817 104.3C101.737 104.453 99.178 110.069 99.178 110.089C99.178 110.102 99.3246 110.106 99.5012 110.102L99.8245 110.092L100.171 109.316L100.521 108.543L102.151 108.549L103.78 108.559L104.124 109.326L104.467 110.092L104.803 110.102L105.143 110.112L105.033 109.869C104.97 109.736 104.367 108.416 103.694 106.933L102.464 104.243H102.154C101.894 104.243 101.841 104.253 101.817 104.3ZM102.844 106.466C103.217 107.306 103.527 108.003 103.534 108.016C103.54 108.033 102.924 108.043 102.157 108.043C100.814 108.043 100.771 108.039 100.788 107.979C100.814 107.873 102.127 104.943 102.147 104.943C102.157 104.943 102.471 105.63 102.844 106.466Z" fill="#262626"/>
</svg>
