<svg width="150" height="150" viewBox="0 0 150 150" fill="none" xmlns="http://www.w3.org/2000/svg">
<path d="M69.4445 57.2917V76.514L69.9167 76.9029C71.0833 77.8195 73.5278 79.1667 74.0417 79.1667C74.1111 79.1667 74.1667 70.8056 74.1667 59.889V40.6251L73.4306 40.2223C73.0417 40.0001 72.4028 39.6251 72.0139 39.3751C71.3472 38.9445 69.6667 38.0556 69.5139 38.0556C69.4722 38.0556 69.4445 46.7084 69.4445 57.2917Z" fill="#262626"/>
<path d="M76.9862 43.0139L76.5278 43.0695V46.5001V49.9306L78.2639 49.8889C81.8334 49.8056 84.8612 50.7639 87.9584 52.9584C88.7917 53.5556 89.5001 54.0139 89.5278 54.0001C90.0139 53.5695 94.1667 49.3612 94.1667 49.2917C94.1667 49.1806 93.0278 48.2084 91.8056 47.2917C90.8334 46.5556 88.1806 45.0973 86.9445 44.6112C83.9028 43.4306 79.4445 42.7084 76.9862 43.0139Z" fill="#262626"/>
<path d="M66.5277 46.4306C64.7638 47.4583 62.2083 49.7361 60.6805 51.625C58.4444 54.4028 56.6388 58.2222 56.0555 61.3889C55.375 65.1111 55.5416 68.3611 56.5555 71.2222C59.2777 78.9583 66.2361 83.9445 74.3055 83.9445C77.7777 83.9445 80.9722 83.0556 83.9722 81.2778C85.6388 80.2778 85.7777 80.0833 84.4027 80.625C82.25 81.4861 81.0416 81.7222 78.6111 81.7222C76.9722 81.7361 76.1944 81.6806 75.3472 81.4722C72.0833 80.7083 69.3472 79.1945 67.1388 76.9167C64.4722 74.1667 63.0138 71.0417 62.625 67.1945C62.25 63.3333 63.375 59.4722 65.8472 56.1667C66.3611 55.4722 66.9444 54.7639 67.1388 54.6111L67.5 54.3333V50.1528C67.5 47.8472 67.4583 45.9722 67.4027 45.9722C67.3333 45.9722 66.9444 46.1806 66.5277 46.4306Z" fill="#262626"/>
<path d="M76.5278 66.0973V79.8334L77.6389 79.9306C78.6528 80.014 80.4167 79.9445 81.0139 79.7779C81.2362 79.7084 81.2501 79.0001 81.2501 67.3751V55.0417L80.4584 54.5556C80.0139 54.2779 79.1528 53.7917 78.5417 53.4584C77.9306 53.139 77.2778 52.7501 77.0973 52.6112C76.9167 52.4723 76.7084 52.3612 76.6528 52.3612C76.5834 52.3612 76.5278 58.4584 76.5278 66.0973Z" fill="#262626"/>
<path d="M82.9166 72.5278C82.9166 76.7778 82.9722 79.3055 83.0555 79.3055C83.5 79.3055 85.8888 78.0694 87.125 77.1944L87.5 76.9305V72.5139V68.1111L87.0555 67.875C86.8055 67.7361 85.7638 67.2083 84.7638 66.6944L82.9166 65.75V72.5278Z" fill="#262626"/>
<path d="M27.9583 87.9167C26.9583 88.0972 25.6111 88.6667 24.8333 89.2361C23.9861 89.8611 23.375 90.7778 22.8889 92.1389C22.5556 93.125 22.5 93.4722 22.5 94.8611C22.5 95.75 22.5833 96.7639 22.6944 97.1528C23.3194 99.5 24.9306 101.056 27.3194 101.611C28.4583 101.875 32.0139 101.806 33.125 101.5L33.8194 101.306L33.8611 99.8333L33.9028 98.375L32.9583 98.6389C31.6389 99.0278 28.9583 99.0694 28.0278 98.7083C27.1944 98.3889 26.3472 97.4444 26.0972 96.5694C25.8056 95.5417 25.8611 93.6944 26.2361 92.75C26.5972 91.8056 27.3611 91.0556 28.2222 90.8056C29.4028 90.4722 32.3056 90.6667 33.6528 91.1944C33.875 91.2778 33.9028 91.1806 33.8611 89.9306L33.8194 88.5694L32.8611 88.2361C31.7639 87.8611 29.2222 87.6944 27.9583 87.9167Z" fill="#262626"/>
<path d="M118.819 87.9722C116.333 88.4722 114.653 90.0833 114.167 92.4306C113.931 93.5417 113.931 96.2639 114.153 97.2917C114.653 99.5278 116.083 101.028 118.264 101.597C119.236 101.847 121.861 101.875 122.944 101.653C124.861 101.25 126.208 100.153 126.944 98.375C127.375 97.375 127.417 97.1528 127.472 95.375C127.542 93.2361 127.375 92.3056 126.653 90.7639C126.167 89.7222 125.764 89.3195 124.431 88.6389C122.875 87.8195 120.806 87.5695 118.819 87.9722ZM121.806 90.7083C123.375 91.0417 124.083 92.3056 124.083 94.7222C124.083 97.1806 123.458 98.4028 121.972 98.8333C121.042 99.1111 119.722 99.0417 119.042 98.6806C117.875 98.0833 117.361 96.9028 117.361 94.8195C117.361 93.1806 117.514 92.5278 118.069 91.7222C118.736 90.75 120.194 90.3611 121.806 90.7083Z" fill="#262626"/>
<path d="M39.8889 88.8473C39.4584 89.889 37.9722 93.6945 37.0139 96.1806C36.6111 97.2501 35.9584 98.9167 35.5695 99.889L34.8889 101.667H36.6528H38.4167L39.0417 100.097L39.6667 98.5417L41.9584 98.5001L44.2639 98.4723L44.875 100.07L45.4722 101.667H47.25C48.2361 101.667 49.0278 101.639 49.0278 101.611C49.0278 101.583 48.8334 101.111 48.5972 100.542C48.3611 99.9723 47.8611 98.6806 47.4722 97.6529C47.0972 96.6251 46.7084 95.6251 46.6111 95.4306C46.5 95.2362 46.125 94.264 45.7778 93.2779C45.4167 92.2917 45 91.2084 44.8334 90.8473C44.6806 90.5001 44.375 89.7362 44.1667 89.1667L43.7778 88.1251L42 88.0834L40.2084 88.0556L39.8889 88.8473ZM42.4445 92.3195C42.6528 92.9167 43.0278 93.9167 43.2917 94.5556C43.5417 95.1806 43.75 95.7917 43.75 95.9029C43.75 96.0834 43.4445 96.1112 41.9306 96.1112H40.1111L40.2084 95.7223C40.25 95.514 40.5695 94.6529 40.8889 93.8195C41.2222 92.9723 41.5695 92.0556 41.6667 91.764C41.75 91.4862 41.875 91.2501 41.9445 91.2501C42 91.2501 42.2222 91.7362 42.4445 92.3195Z" fill="#262626"/>
<path d="M50.5555 94.8612V101.667H52.3194H54.0694L53.9861 99.514L53.9028 97.3612H55.0833C56.5833 97.3612 56.6528 97.4167 57.6389 99.8195L58.4028 101.667H60.1805C61.1528 101.667 61.9444 101.639 61.9444 101.611C61.9444 101.583 61.6944 101 61.375 100.32C61.0694 99.6529 60.625 98.6529 60.4028 98.0973C60.1667 97.5556 59.8889 97.0279 59.7778 96.9306C59.4861 96.6806 59.5278 96.5973 60.25 96.1529C60.9861 95.6945 61.7222 94.6945 61.9583 93.8334C62.0417 93.514 62.0833 92.7917 62.0555 92.2223C62 91.3751 61.9028 91.014 61.5278 90.2917C60.9722 89.2501 60.3889 88.7362 59.3055 88.3473C58.5694 88.0834 58.2222 88.0556 54.5278 88.0556H50.5555V94.8612ZM57.7639 90.7362C58.4305 91.0695 58.6805 91.6112 58.6805 92.639C58.6805 93.5417 58.6528 93.6251 58.2083 94.0834C57.5972 94.7084 56.75 94.889 55.1389 94.7501L53.9583 94.6529L53.9167 92.5973L53.875 90.5556H55.6528C56.7917 90.5556 57.5555 90.6251 57.7639 90.7362Z" fill="#262626"/>
<path d="M62.9862 89.3333C63.2362 90.0417 63.5973 91.0278 63.7917 91.5278C63.9862 92.0278 64.5417 93.5278 65.0556 94.8611C65.5556 96.1944 66.3334 98.2639 66.7778 99.4444L67.5834 101.597L69.4584 101.639L71.3195 101.681L71.9862 99.9028C72.3612 98.9167 73.0834 96.9722 73.6112 95.5555C74.1251 94.1389 74.6667 92.7361 74.7917 92.4305C74.9306 92.125 75.3334 91.0139 75.7084 89.9583L76.3751 88.0555H74.6806H72.9862L72.2639 90.1111C71.5695 92.1111 70.2778 95.6667 69.7778 96.9722C69.6389 97.3472 69.4862 97.6389 69.4445 97.6389C69.3889 97.6389 68.9584 96.5278 68.4723 95.1667C67.9862 93.8194 67.3889 92.1805 67.1389 91.5278C66.8889 90.875 66.5139 89.8333 66.2917 89.2083L65.9028 88.0555H64.2084H62.5278L62.9862 89.3333Z" fill="#262626"/>
<path d="M78.5417 88.2223C78.5 88.3195 78.1528 89.2084 77.7639 90.2084C76.9028 92.4029 75.7084 95.5001 74.6806 98.1945C74.2639 99.3056 73.7778 100.514 73.625 100.875C73.4584 101.25 73.3334 101.583 73.3334 101.611C73.3334 101.639 74.1389 101.667 75.1112 101.667H76.8889L77.4167 100.208C77.7084 99.4029 78.0278 98.6945 78.125 98.6112C78.2362 98.514 79.125 98.4862 80.5 98.5001L82.7084 98.5417L83.3334 100.097L83.9584 101.667H85.6667C86.5973 101.667 87.3612 101.625 87.3612 101.556C87.3612 101.5 87.0139 100.556 86.5834 99.4445C86.1667 98.3334 85.4723 96.5279 85.0556 95.4167C84.6389 94.3056 84.1806 93.1529 84.0417 92.8473C83.9028 92.5417 83.5 91.514 83.1528 90.5556C82.8056 89.5973 82.4306 88.6529 82.3334 88.4445L82.1528 88.0556H80.375C79.0834 88.0556 78.5834 88.0973 78.5417 88.2223ZM80.6945 91.9029C81.0278 92.639 82.2223 95.8473 82.2223 96.0001C82.2223 96.0695 81.4167 96.1112 80.4167 96.1112C79.4306 96.1112 78.6112 96.0556 78.6112 96.0001C78.6112 95.889 79.7639 92.5417 80.125 91.6251C80.2084 91.4167 80.3056 91.2501 80.3334 91.2501C80.375 91.2501 80.5417 91.5417 80.6945 91.9029Z" fill="#262626"/>
<path d="M88.8889 94.3334C88.8889 97.7917 88.8473 100.861 88.8056 101.139L88.7084 101.667H93.6667H98.6112V100.431V99.2084L95.4862 99.139C93.7639 99.0973 92.3056 99.0279 92.25 98.9723C92.1945 98.9167 92.1389 96.4306 92.1112 93.4584L92.0695 88.0556H90.4862H88.8889V94.3334Z" fill="#262626"/>
<path d="M100.417 93.3751C100.417 96.3056 100.375 99.3751 100.319 100.181L100.236 101.667H101.917H103.611V98.9723V96.2779L104.764 96.1806C105.389 96.139 106.625 96.1112 107.5 96.139L109.097 96.1806L109.139 98.9167L109.167 101.667H110.833H112.5V94.8612V88.0556H110.903H109.306V88.8612C109.306 89.3195 109.264 90.5279 109.208 91.5695L109.125 93.4723H106.361H103.611V90.764V88.0556H102.014H100.417V93.3751Z" fill="#262626"/>
<path d="M47.6667 107.944L47.7084 110.347L49.3472 110.389C50.7361 110.417 50.9722 110.389 50.9722 110.208C50.9722 110.042 50.7361 110 49.5139 110H48.0556V109.028V108.056H49.2917C49.9861 108.056 50.5834 107.986 50.625 107.917C50.6806 107.833 50.2361 107.778 49.3889 107.778H48.0556V106.806V105.833H49.5278C50.4584 105.833 50.9584 105.778 50.9028 105.694C50.8472 105.611 50.1389 105.556 49.2222 105.556H47.6389L47.6667 107.944Z" fill="#262626"/>
<path d="M53.0833 107.917C53.1388 110.82 53.3888 111.153 53.4444 108.389C53.4583 107.361 53.5416 106.528 53.5972 106.556C53.6666 106.583 54.4027 107.431 55.2361 108.458C56.0555 109.486 56.8055 110.32 56.875 110.306C56.9583 110.292 57.0277 109.347 57.0555 107.917C57.0833 105.875 57.0555 105.556 56.875 105.556C56.6944 105.556 56.6666 105.847 56.6666 107.5C56.6666 108.57 56.625 109.445 56.5694 109.445C56.5 109.445 55.7777 108.57 54.9305 107.5C54.0972 106.431 53.3194 105.556 53.2222 105.556C53.0833 105.556 53.0555 106.07 53.0833 107.917Z" fill="#262626"/>
<path d="M60.4167 105.861C60.0695 106.042 59.6528 106.403 59.4723 106.667C59.1945 107.083 59.1528 107.292 59.1945 108.056C59.25 109.167 59.5278 109.583 60.5278 110.083C61.3473 110.5 61.9445 110.486 62.8334 110.07C63.3334 109.833 63.3334 109.82 63.3334 108.945C63.3334 108.25 63.2917 108.056 63.125 108.056C62.9584 108.056 62.9167 108.236 62.9167 108.889C62.9167 109.875 62.7639 110 61.625 110C59.875 110 58.8889 108.278 59.8195 106.833C60.4306 105.889 61.5 105.583 62.5973 106.042C63.1806 106.292 63.1945 106.292 63.1945 106.097C63.1945 105.875 62.2917 105.556 61.625 105.556C61.2917 105.556 60.7639 105.695 60.4167 105.861Z" fill="#262626"/>
<path d="M65.6111 105.736C65.5833 105.833 65.5694 106.917 65.5833 108.125L65.625 110.347H67.2778C68.4861 110.347 68.9444 110.306 69 110.167C69.0417 110.042 68.6944 110 67.5833 110H66.1111V109.028V108.056H67.3611C68.0972 108.056 68.6111 108 68.6111 107.917C68.6111 107.833 68.0972 107.778 67.3611 107.778H66.1111V106.806V105.833H67.5C68.3333 105.833 68.8889 105.778 68.8889 105.695C68.8889 105.472 65.7083 105.514 65.6111 105.736Z" fill="#262626"/>
<path d="M71.0277 105.736C71 105.833 70.9861 106.917 71 108.125C71.0416 109.986 71.0694 110.347 71.25 110.347C71.4166 110.347 71.4583 110.028 71.5 108.431C71.5138 107.389 71.5833 106.528 71.6388 106.528C71.6944 106.542 71.9861 106.861 72.2916 107.25C73.9166 109.347 74.7638 110.347 74.9166 110.347C75.0277 110.347 75.0694 109.667 75.0694 107.986C75.0694 105.986 75.0416 105.625 74.8611 105.625C74.6944 105.625 74.6388 105.958 74.5833 107.57L74.5138 109.5L72.9444 107.528C72.0694 106.445 71.3055 105.556 71.2361 105.556C71.1666 105.556 71.0694 105.639 71.0277 105.736Z" fill="#262626"/>
<path d="M77.5278 107.917C77.5556 109.375 77.625 110.278 77.7084 110.278C77.7917 110.278 77.8611 109.792 77.8889 109.167L77.9306 108.042L79.4861 108.083L81.0417 108.125L81.1111 109.208C81.2361 111.139 81.4584 110.403 81.5 107.917C81.5278 105.903 81.5 105.556 81.3334 105.556C81.1667 105.556 81.1111 105.792 81.0834 106.625L81.0417 107.708L79.4861 107.75L77.9167 107.792V106.667C77.9167 105.764 77.875 105.556 77.7084 105.556C77.5278 105.556 77.5 105.875 77.5278 107.917Z" fill="#262626"/>
<path d="M85 106.486C84.1667 108.236 83.3334 110.139 83.3334 110.292C83.3334 110.583 83.6945 110.167 83.9584 109.583L84.2084 109.028H85.625H87.0556L87.3473 109.722C87.6112 110.319 87.9167 110.639 87.9167 110.306C87.9167 109.972 85.8334 105.625 85.6667 105.583C85.5139 105.556 85.3056 105.847 85 106.486ZM86.2223 107.194C86.9584 108.903 87.0139 108.75 85.6389 108.75C84.9862 108.75 84.4445 108.708 84.4445 108.639C84.4306 108.361 85.4723 106.111 85.6112 106.111C85.6945 106.111 85.9723 106.597 86.2223 107.194Z" fill="#262626"/>
<path d="M89.6389 105.736C89.6112 105.833 89.5973 106.917 89.6112 108.125C89.6528 109.986 89.6806 110.347 89.8612 110.347C90.0139 110.347 90.0834 110.153 90.1112 109.611C90.1528 108.917 90.1667 108.889 90.5417 108.889C90.7639 108.889 91.1251 108.847 91.3612 108.806C91.7501 108.722 91.8334 108.792 92.4445 109.57C93.2084 110.556 93.5556 110.583 92.8473 109.597C92.5834 109.222 92.3612 108.889 92.3612 108.847C92.3612 108.806 92.5834 108.556 92.8473 108.292C93.2639 107.875 93.3334 107.708 93.3334 107.153C93.3334 106.611 93.2639 106.431 92.9167 106.111C92.4445 105.667 91.9862 105.556 90.6667 105.556C90.0139 105.556 89.6945 105.611 89.6389 105.736ZM92.2778 106.028C92.6112 106.167 92.7917 106.361 92.9028 106.695C93.2639 107.806 92.5695 108.472 91.0139 108.472H90.1389V107.153V105.833H90.9723C91.4306 105.833 92.0278 105.917 92.2778 106.028Z" fill="#262626"/>
<path d="M95.4861 105.722C95.4444 105.833 95.4305 106.917 95.4444 108.125C95.4861 109.986 95.5139 110.347 95.6944 110.347C95.875 110.347 95.9028 110 95.9028 108C95.9028 106.236 95.8611 105.639 95.7361 105.597C95.6389 105.556 95.5278 105.625 95.4861 105.722Z" fill="#262626"/>
<path d="M99.7222 105.792C99.2916 106.5 97.6805 110.292 97.7916 110.347C97.8472 110.389 98.0694 110.111 98.2638 109.722L98.6111 109.028H99.9999H101.389L101.736 109.722C101.93 110.097 102.153 110.417 102.222 110.417C102.43 110.417 102.417 110.375 101.514 108.431C101.055 107.417 100.569 106.361 100.458 106.07C100.222 105.514 99.9444 105.417 99.7222 105.792ZM100.708 107.445L101.236 108.681L100.18 108.722C99.5972 108.75 99.0416 108.736 98.9444 108.695C98.7222 108.611 99.8333 106.083 100.055 106.153C100.139 106.181 100.43 106.764 100.708 107.445Z" fill="#262626"/>
</svg>
