<?xml version="1.0" standalone="no"?>
<!DOCTYPE svg PUBLIC "-//W3C//DTD SVG 20010904//EN"
 "http://www.w3.org/TR/2001/REC-SVG-20010904/DTD/svg10.dtd">
<svg version="1.0" xmlns="http://www.w3.org/2000/svg"
 width="2874.000000pt" height="1836.000000pt" viewBox="0 0 2874.000000 1836.000000"
 preserveAspectRatio="xMidYMid meet">

<g transform="translate(0.000000,1836.000000) scale(0.100000,-0.100000)"
fill="#000000" stroke="none">
<path d="M13180 18344 c-133 -12 -331 -38 -450 -60 -1778 -326 -3168 -1769
-3424 -3554 -82 -568 -51 -1127 94 -1685 164 -637 499 -1262 937 -1750 l53
-59 47 17 c27 9 128 44 225 78 l178 61 -101 107 c-904 951 -1251 2295 -922
3576 367 1433 1566 2537 3028 2790 250 43 346 50 660 50 336 0 459 -12 750
-70 992 -198 1868 -792 2428 -1646 267 -407 453 -860 547 -1336 l23 -113 219
0 219 0 -6 38 c-107 625 -325 1179 -667 1690 -145 216 -290 393 -493 601 -672
687 -1518 1110 -2485 1242 -126 17 -217 21 -485 24 -181 1 -350 1 -375 -1z"/>
<path d="M10595 15845 c-65 -35 -95 -83 -95 -152 0 -46 35 -106 76 -133 42
-29 131 -27 174 3 125 85 74 281 -77 294 -32 3 -58 -1 -78 -12z"/>
<path d="M11479 15686 c-94 -64 -92 -199 4 -270 40 -29 134 -29 173 0 46 34
67 70 72 123 9 98 -61 171 -165 171 -35 0 -58 -7 -84 -24z"/>
<path d="M10932 15485 c-39 -32 -43 -81 -12 -125 12 -16 132 -109 268 -207
136 -97 540 -391 897 -653 358 -262 655 -479 661 -483 7 -4 42 7 79 24 61 29
73 31 143 27 94 -6 159 -36 221 -103 62 -67 84 -124 85 -215 1 -66 -3 -84 -32
-142 -18 -36 -49 -81 -69 -99 -164 -143 -415 -95 -510 99 -25 51 -28 68 -28
154 l0 97 -849 638 c-1258 946 -1268 954 -1303 969 -91 39 -183 -22 -153 -102
18 -46 42 -67 245 -212 420 -300 1822 -1337 1858 -1373 43 -44 48 -82 16 -123
-30 -38 -83 -36 -145 7 -27 18 -375 275 -773 571 -1254 932 -1148 859 -1221
837 -67 -20 -86 -83 -44 -146 8 -13 117 -97 242 -186 344 -247 535 -390 949
-711 628 -488 861 -659 1175 -859 l166 -106 62 30 c53 26 73 31 139 31 65 0
88 -5 134 -28 70 -34 146 -116 170 -182 54 -153 -17 -330 -161 -401 -49 -24
-69 -28 -142 -28 -73 0 -93 4 -142 28 -67 33 -121 90 -155 164 -22 47 -25 65
-21 143 l3 89 -1110 832 c-1621 1216 -1519 1142 -1581 1147 -49 4 -56 2 -84
-26 -33 -34 -37 -59 -15 -102 19 -36 55 -66 300 -240 273 -195 1464 -1128
1478 -1157 21 -46 -24 -96 -78 -86 -11 3 -274 191 -584 418 -309 227 -572 416
-584 419 -40 11 -58 6 -82 -20 -28 -30 -34 -90 -12 -125 6 -11 355 -270 775
-576 l763 -556 52 29 c47 26 61 29 147 29 84 0 101 -3 145 -27 110 -58 175
-163 175 -284 0 -104 -22 -157 -94 -230 -43 -42 -76 -66 -110 -77 -63 -21
-168 -22 -229 -1 -60 20 -141 93 -175 158 -24 46 -27 61 -27 158 l0 106 -528
386 c-290 212 -529 386 -531 386 -2 0 -12 -19 -22 -42 -27 -61 -25 -184 4
-259 52 -132 153 -269 332 -453 267 -274 522 -480 1154 -934 138 -98 251 -183
253 -188 2 -5 -491 -209 -1094 -454 l-1098 -444 -487 -260 c-269 -143 -486
-261 -484 -263 5 -5 341 71 646 148 1606 401 3595 1096 5145 1796 464 210
1134 542 1095 543 -68 1 -873 62 -935 71 -137 18 -267 50 -330 80 -162 77
-494 416 -680 694 -110 164 -155 270 -254 595 -247 814 -376 1062 -608 1179
-79 39 -168 54 -333 55 -141 1 -650 -28 -710 -41 -25 -5 -25 -5 16 -41 40 -36
350 -264 429 -315 l40 -26 55 27 c48 23 67 27 145 27 78 0 97 -4 140 -27 62
-32 130 -104 158 -166 31 -71 29 -180 -5 -253 -141 -305 -589 -228 -615 105
-3 34 -1 78 5 98 l10 37 -389 285 c-214 157 -407 295 -428 306 -79 40 -141 18
-141 -49 0 -71 23 -94 285 -292 105 -79 193 -148 197 -154 18 -25 8 -74 -19
-95 -54 -43 -76 -31 -385 199 -768 573 -726 544 -777 549 -40 3 -52 0 -79 -23z"/>
<path d="M9959 15286 c-69 -47 -91 -151 -46 -216 38 -57 71 -75 136 -75 48 0
64 5 95 29 66 50 85 135 45 205 -31 55 -65 75 -134 79 -51 3 -65 0 -96 -22z"/>
<path d="M12905 14811 c-110 -50 -148 -186 -79 -284 110 -155 349 -76 349 115
0 47 -6 64 -30 100 -56 80 -155 108 -240 69z"/>
<path d="M10084 14369 c-43 -12 -101 -79 -110 -124 -20 -110 81 -211 191 -191
52 10 110 66 124 119 30 122 -86 232 -205 196z"/>
<path d="M19010 14364 c-25 -2 -108 -8 -185 -14 -268 -21 -607 -72 -800 -121
-44 -11 -200 -61 -346 -110 -146 -49 -278 -89 -292 -89 -15 0 -27 -4 -27 -8 0
-5 88 -40 196 -79 l195 -70 97 42 c214 94 553 198 828 254 345 69 620 95 970
89 220 -3 250 -2 232 11 -36 25 -154 60 -260 76 -98 15 -502 28 -608 19z"/>
<path d="M17020 14007 c-169 -60 -281 -154 -538 -452 -86 -99 -197 -221 -248
-271 -219 -217 -430 -333 -698 -385 -95 -19 -101 -22 -135 -61 -39 -44 -55
-68 -49 -72 1 -2 156 -12 343 -23 l340 -21 60 36 c72 43 715 473 1171 784 181
124 350 236 373 248 24 12 39 25 35 30 -5 4 -119 53 -253 109 -273 113 -291
117 -401 78z m81 -120 c124 -82 67 -277 -80 -277 -86 0 -151 64 -151 150 0
119 134 192 231 127z"/>
<path d="M16965 13815 c-65 -64 14 -168 94 -125 10 5 24 23 31 40 33 79 -65
146 -125 85z"/>
<path d="M12849 13930 c-62 -33 -109 -106 -109 -170 0 -63 54 -146 114 -177
76 -39 193 -7 242 67 65 97 23 242 -83 286 -46 20 -121 17 -164 -6z"/>
<path d="M12914 12975 c-75 -38 -121 -123 -107 -199 34 -187 277 -224 363 -55
52 101 -8 238 -118 269 -56 15 -83 12 -138 -15z"/>
<path d="M17081 12830 c-71 -205 -193 -461 -319 -670 -559 -934 -1500 -1588
-2566 -1785 -254 -47 -402 -59 -696 -59 -469 0 -835 61 -1255 209 -88 31 -173
61 -190 66 -27 9 -59 -2 -293 -99 l-263 -109 44 -26 c24 -14 102 -53 174 -85
436 -200 854 -315 1358 -374 171 -20 714 -17 895 6 625 76 1182 264 1703 575
765 456 1374 1155 1726 1978 59 138 142 369 156 431 l7 32 -225 0 -224 0 -32
-90z"/>
<path d="M11985 12766 c-49 -22 -96 -80 -110 -134 -35 -132 58 -254 194 -256
44 -1 66 5 103 27 144 84 132 299 -19 363 -41 18 -129 17 -168 0z"/>
<path d="M26155 9414 c-225 -323 -414 -593 -418 -600 -7 -12 59 -14 425 -14
l434 0 482 397 c265 219 478 400 474 404 -5 5 -869 354 -977 395 -5 2 -194
-260 -420 -582z"/>
<path d="M14342 8269 c-462 -38 -888 -177 -1218 -398 -491 -329 -787 -820
-896 -1487 l-22 -139 -3 -1743 -4 -1742 526 0 525 0 0 710 0 710 1385 0 1385
0 0 -710 0 -710 525 0 526 0 -4 1733 c-3 1898 0 1791 -63 2077 -203 922 -881
1525 -1879 1674 -231 35 -543 44 -783 25z m500 -940 c599 -64 1014 -429 1138
-998 30 -139 38 -278 45 -778 l6 -473 -1390 0 -1391 0 0 493 c0 271 5 532 10
582 85 742 583 1175 1362 1184 65 0 164 -4 220 -10z"/>
<path d="M26065 8273 c-676 -53 -1167 -249 -1552 -617 -176 -167 -309 -351
-418 -578 -101 -211 -161 -404 -207 -673 l-22 -130 -3 -1757 -4 -1758 526 0
525 0 0 710 0 710 1385 0 1385 0 0 -710 0 -710 525 0 526 0 -4 1713 c-4 1870
-1 1788 -63 2078 -212 1005 -982 1632 -2113 1719 -124 9 -389 11 -486 3z m535
-958 c352 -63 628 -225 817 -481 149 -202 232 -452 253 -762 5 -76 11 -329 12
-565 l3 -427 -1388 0 -1388 0 4 563 c3 523 5 569 25 658 61 286 180 509 363
685 196 188 460 303 789 344 109 13 398 4 510 -15z"/>
<path d="M2670 8259 c-566 -51 -1087 -239 -1530 -553 -329 -233 -637 -584
-824 -937 -344 -650 -407 -1449 -171 -2164 367 -1114 1360 -1849 2555 -1892
275 -10 524 25 784 111 244 81 521 222 714 365 45 34 84 61 87 61 3 0 5 -110
5 -245 l0 -245 390 0 390 0 0 1400 0 1400 -460 0 -460 0 0 -674 0 -673 -108
-105 c-350 -338 -835 -501 -1330 -447 -227 24 -421 82 -637 189 -427 212 -750
586 -903 1045 -98 293 -123 606 -72 910 99 588 469 1076 1015 1340 396 192
822 241 1284 149 387 -77 751 -258 1068 -530 l48 -42 300 379 c165 208 300
383 300 388 0 23 -243 199 -417 303 -404 239 -886 399 -1383 458 -124 15 -518
21 -645 9z"/>
<path d="M6180 6478 c0 -1104 4 -1814 10 -1898 40 -529 228 -965 556 -1294
454 -453 1109 -620 1851 -471 319 64 647 212 898 404 93 71 249 226 336 334
l79 98 0 -446 0 -445 525 0 525 0 0 2740 0 2740 -525 0 -525 0 -2 -1587 -3
-1588 -23 -108 c-99 -468 -370 -831 -767 -1029 -296 -148 -649 -194 -958 -124
-513 117 -851 513 -906 1060 -8 75 -11 630 -11 1743 l0 1633 -530 0 -530 0 0
-1762z"/>
<path d="M18300 5500 l0 -2740 525 0 525 0 0 805 0 805 700 2 c385 1 710 2
722 2 20 1 86 -108 491 -806 l469 -808 600 0 600 0 -15 23 c-8 12 -276 419
-596 903 -319 485 -581 886 -581 890 1 5 44 29 98 54 213 99 446 284 587 464
185 239 297 506 356 851 30 173 37 494 15 681 -97 836 -616 1372 -1501 1548
-303 61 -263 59 -1687 63 l-1308 4 0 -2741z m2610 1811 c496 -86 763 -297 867
-687 24 -90 26 -116 27 -294 1 -218 -12 -306 -65 -440 -43 -105 -92 -183 -172
-267 -150 -157 -353 -252 -657 -304 -42 -7 -325 -13 -812 -16 l-748 -4 0 1016
0 1016 748 -4 c487 -3 770 -9 812 -16z"/>
<path d="M7792 1886 c-41 -19 -78 -59 -108 -118 -13 -26 -24 -49 -24 -51 0 -2
19 -12 42 -23 35 -16 42 -16 46 -4 10 29 60 69 95 75 32 6 54 -1 158 -50 109
-52 127 -58 187 -58 99 -1 152 35 203 136 22 43 23 42 -33 72 -26 14 -27 14
-47 -18 -47 -77 -105 -78 -244 -6 -89 46 -111 53 -172 56 -47 2 -81 -1 -103
-11z"/>
<path d="M1554 1566 c-101 -25 -176 -84 -216 -171 -19 -43 -22 -67 -23 -165 0
-106 2 -119 27 -166 32 -60 83 -106 136 -122 20 -6 158 -27 306 -47 148 -19
273 -38 277 -41 13 -7 11 -245 -2 -282 -6 -17 -20 -32 -32 -36 -12 -3 -172 -6
-354 -6 l-333 0 0 -80 0 -80 305 0 c380 0 446 12 530 99 61 63 79 112 83 232
6 166 -23 242 -111 293 -35 21 -88 31 -330 65 -159 23 -293 41 -298 41 -5 0
-9 62 -9 144 0 138 1 146 22 160 19 14 69 16 345 16 l323 0 0 80 0 80 -297 -1
c-201 0 -315 -5 -349 -13z"/>
<path d="M2800 1565 c-107 -29 -190 -112 -210 -209 -7 -37 -10 -173 -8 -413 3
-352 3 -359 26 -405 30 -61 100 -122 165 -145 45 -16 87 -18 317 -18 252 0
268 1 321 23 72 29 133 90 159 159 19 50 20 78 20 418 0 416 -3 434 -81 513
-77 77 -116 86 -404 89 -197 2 -262 -1 -305 -12z m574 -178 c21 -28 21 -38 21
-412 0 -374 0 -384 -21 -412 l-21 -28 -266 -3 -265 -2 -21 26 c-20 26 -21 36
-21 421 l0 394 25 25 24 24 262 -2 262 -3 21 -28z"/>
<path d="M3960 975 l0 -605 415 0 415 0 0 80 0 80 -320 0 -320 0 0 525 0 525
-95 0 -95 0 0 -605z"/>
<path d="M5062 1098 c3 -480 3 -483 26 -533 44 -95 129 -160 240 -184 75 -16
403 -14 473 3 141 33 229 127 249 268 5 35 10 258 10 496 l0 432 -100 0 -100
0 0 -472 c0 -289 -4 -487 -10 -509 -19 -66 -30 -69 -295 -69 l-237 0 -29 29
-29 29 0 496 0 496 -101 0 -100 0 3 -482z"/>
<path d="M6634 1566 c-109 -27 -188 -100 -215 -199 -6 -23 -9 -180 -7 -415 l3
-377 27 -52 c39 -73 113 -126 198 -139 23 -4 38 -10 33 -13 -5 -3 -14 -32 -19
-63 l-11 -58 56 0 c77 0 105 -16 109 -62 2 -26 -3 -43 -20 -63 -20 -23 -34
-28 -90 -32 l-66 -6 -10 -39 -10 -40 111 4 c129 4 163 17 198 75 18 29 24 53
24 101 0 59 -2 66 -33 93 -21 19 -43 29 -65 29 -56 0 -78 10 -75 34 3 21 7 21
246 24 l242 2 0 80 0 80 -302 0 c-337 1 -333 0 -349 67 -5 21 -9 191 -9 378 0
187 4 357 9 378 16 67 12 66 349 67 l302 0 0 80 0 80 -287 -1 c-193 0 -305 -5
-339 -13z"/>
<path d="M7750 1565 c-107 -29 -190 -112 -210 -209 -7 -37 -10 -173 -8 -413 3
-352 3 -359 26 -405 30 -61 100 -122 165 -145 45 -16 87 -18 317 -18 252 0
268 1 321 23 72 29 133 90 159 159 19 50 20 78 20 418 0 416 -3 434 -81 513
-77 77 -116 86 -404 89 -197 2 -262 -1 -305 -12z m574 -178 c21 -28 21 -38 21
-412 0 -374 0 -384 -21 -412 l-21 -28 -266 -3 -265 -2 -21 26 c-20 26 -21 36
-21 421 l0 394 25 25 24 24 262 -2 262 -3 21 -28z"/>
<path d="M8920 975 l0 -605 415 0 415 0 0 80 0 80 -320 0 -320 0 0 195 0 195
295 0 295 0 0 75 0 75 -292 2 -293 3 -3 173 -2 172 320 0 320 0 0 80 0 80
-415 0 -415 0 0 -605z"/>
<path d="M10324 1566 c-101 -25 -176 -84 -216 -171 -19 -43 -22 -67 -23 -165
0 -106 2 -119 27 -166 32 -60 83 -106 136 -122 20 -6 158 -27 306 -47 148 -19
273 -38 277 -41 13 -7 11 -245 -2 -282 -6 -17 -20 -32 -32 -36 -12 -3 -172 -6
-354 -6 l-333 0 0 -80 0 -80 305 0 c380 0 446 12 530 99 61 63 79 112 83 232
6 166 -23 242 -111 293 -35 21 -88 31 -330 65 -159 23 -293 41 -298 41 -5 0
-9 62 -9 144 0 138 1 146 22 160 19 14 69 16 345 16 l323 0 0 80 0 80 -297 -1
c-201 0 -315 -5 -349 -13z"/>
<path d="M11980 975 l0 -605 415 0 415 0 0 80 0 80 -320 0 -320 0 0 195 0 195
295 0 295 0 0 75 0 75 -292 2 -293 3 -3 173 -2 172 320 0 320 0 0 80 0 80
-415 0 -415 0 0 -605z"/>
<path d="M13210 975 l0 -605 95 0 95 0 2 547 3 548 132 -420 c73 -231 151
-477 173 -547 l41 -128 129 0 128 0 26 78 c14 42 89 280 167 527 77 248 145
457 150 465 5 9 9 -214 9 -527 l0 -543 95 0 95 0 0 605 0 605 -173 0 -174 0
-141 -467 c-77 -258 -149 -496 -159 -530 -10 -35 -20 -63 -23 -63 -3 0 -77
239 -164 530 l-159 530 -174 0 -173 0 0 -605z"/>
<path d="M15470 1505 l0 -75 200 0 200 0 0 -530 0 -530 100 0 100 0 0 530 0
530 195 0 195 0 0 75 0 75 -495 0 -495 0 0 -75z"/>
<path d="M16800 975 l0 -605 415 0 415 0 0 80 0 80 -320 0 -320 0 0 195 0 195
295 0 295 0 0 75 0 75 -292 2 -293 3 -3 173 -2 172 320 0 320 0 0 80 0 80
-415 0 -415 0 0 -605z"/>
<path d="M18254 1566 c-109 -27 -188 -100 -215 -199 -6 -23 -9 -180 -7 -415
l3 -377 31 -55 c33 -58 96 -110 162 -132 25 -8 138 -13 345 -15 l307 -4 0 80
0 81 -302 0 c-337 1 -333 0 -349 67 -5 21 -9 191 -9 378 0 187 4 357 9 378 16
67 12 66 349 67 l302 0 0 80 0 80 -287 -1 c-193 0 -305 -5 -339 -13z"/>
<path d="M19190 975 l0 -605 95 0 95 0 0 532 c0 292 3 528 7 524 4 -3 129
-242 279 -529 l272 -522 166 -3 166 -2 0 605 0 605 -100 0 -100 0 0 -532 0
-533 -278 530 -278 530 -162 3 -162 2 0 -605z"/>
<path d="M20860 1565 c-107 -29 -190 -112 -210 -209 -7 -37 -10 -173 -8 -413
3 -352 3 -359 26 -405 30 -61 100 -122 165 -145 45 -16 87 -18 317 -18 252 0
268 1 321 23 72 29 133 90 159 159 19 50 20 78 20 418 0 416 -3 434 -81 513
-77 77 -116 86 -404 89 -197 2 -262 -1 -305 -12z m574 -178 c21 -28 21 -38 21
-412 0 -374 0 -384 -21 -412 l-21 -28 -266 -3 -265 -2 -21 26 c-20 26 -21 36
-21 421 l0 394 25 25 24 24 262 -2 262 -3 21 -28z"/>
<path d="M22030 975 l0 -605 415 0 415 0 0 80 0 80 -320 0 -320 0 0 525 0 525
-95 0 -95 0 0 -605z"/>
<path d="M23360 1565 c-107 -29 -190 -112 -210 -209 -7 -37 -10 -173 -8 -413
3 -352 3 -359 26 -405 30 -61 100 -122 165 -145 45 -16 87 -18 317 -18 252 0
268 1 321 23 72 29 133 90 159 159 19 50 20 78 20 418 0 416 -3 434 -81 513
-77 77 -116 86 -404 89 -197 2 -262 -1 -305 -12z m574 -178 c21 -28 21 -38 21
-412 0 -374 0 -384 -21 -412 l-21 -28 -266 -3 -265 -2 -21 26 c-20 26 -21 36
-21 421 l0 394 25 25 24 24 262 -2 262 -3 21 -28z"/>
<path d="M24732 1564 c-71 -19 -102 -36 -145 -81 -74 -75 -77 -97 -77 -508 0
-340 1 -368 20 -418 26 -69 87 -130 159 -159 54 -22 68 -23 419 -26 l362 -3 0
321 0 320 -100 0 -100 0 0 -240 0 -240 -261 2 -262 3 -21 28 c-21 28 -21 38
-21 412 0 374 0 384 21 412 l21 28 362 3 361 2 0 80 0 80 -342 -1 c-263 0
-355 -4 -396 -15z"/>
<path d="M25840 975 l0 -605 95 0 95 0 0 605 0 605 -95 0 -95 0 0 -605z"/>
<path d="M26530 988 c-117 -326 -215 -599 -218 -605 -3 -10 20 -13 95 -13
l100 0 42 123 c23 67 45 128 49 135 7 9 69 12 277 10 l268 -3 46 -132 46 -133
101 0 101 0 -178 493 c-99 270 -198 543 -220 605 l-41 112 -127 0 -127 0 -214
-592z m455 100 l102 -288 -213 0 c-118 0 -214 2 -214 4 0 5 195 559 206 586 6
13 7 13 12 0 3 -8 51 -144 107 -302z"/>
</g>
</svg>
